<?xml version="1.0" encoding="iso-8859-1"?>
<!-- Generator: Adobe Illustrator 19.0.1, SVG Export Plug-In . SVG Version: 6.00 Build 0)  -->
<svg version="1.1" id="&#x421;&#x43B;&#x43E;&#x439;_1"
	 xmlns="http://www.w3.org/2000/svg" xmlns:xlink="http://www.w3.org/1999/xlink" x="0px" y="0px" viewBox="0 0 70.817 74.788"
	 style="enable-background:new 0 0 70.817 74.788;" xml:space="preserve">
<g>
	<defs>
		<rect id="SVGID_1_" y="0" width="70.817" height="74.788"/>
	</defs>
	<clipPath id="SVGID_2_">
		<use xlink:href="#SVGID_1_"  style="overflow:visible;"/>
	</clipPath>
	<path style="clip-path:url(#SVGID_2_);fill:#252831;" d="M59.968,55.681c1.08-2.077,1.701-4.367,1.701-6.296
		c0-5.254-4.274-9.528-9.528-9.528c-5.253,0-9.527,4.274-9.527,9.528c0,1.916,0.613,4.19,1.679,6.256
		c-2.535,0.412-4.826,1.543-6.663,3.181v-2.36c0-6.483-4.687-11.879-10.848-13.008c1.079-2.076,1.7-4.366,1.7-6.295
		c0-5.254-4.274-9.528-9.527-9.528c-5.254,0-9.528,4.274-9.528,9.528c0,1.916,0.613,4.19,1.679,6.257
		C4.819,44.438,0,49.891,0,56.463v16.824c0,0.829,0.672,1.5,1.5,1.5c0.828,0,1.5-0.671,1.5-1.5V56.463
		c0-5.564,4.464-10.096,9.998-10.223c1.598,1.853,3.641,3.144,5.958,3.144c2.311,0,4.348-1.285,5.945-3.129
		c5.409,0.265,9.73,4.735,9.73,10.208v6.247c-0.917,1.798-1.444,3.826-1.444,5.98v4.598c0,0.829,0.672,1.5,1.5,1.5
		c0.828,0,1.5-0.671,1.5-1.5V68.69c0-5.562,4.465-10.095,9.999-10.222c1.599,1.853,3.641,3.143,5.956,3.143
		c2.312,0,4.349-1.285,5.945-3.13c5.408,0.266,9.73,4.736,9.73,10.209v4.598c0,0.829,0.672,1.5,1.5,1.5c0.828,0,1.5-0.671,1.5-1.5
		V68.69C70.815,62.208,66.129,56.809,59.968,55.681 M18.955,46.383c-3.301,0-6.528-5.282-6.528-9.224c0-3.6,2.929-6.528,6.528-6.528
		s6.527,2.928,6.527,6.528C25.482,41.101,22.255,46.383,18.955,46.383 M52.141,58.609c-3.3,0-6.527-5.282-6.527-9.224
		c0-3.6,2.928-6.528,6.527-6.528c3.599,0,6.528,2.928,6.528,6.528C58.669,53.327,55.441,58.609,52.141,58.609"/>
	<path style="clip-path:url(#SVGID_2_);fill:#252831;" d="M63.349,66.456c-0.828,0-1.5,0.672-1.5,1.5v5.33
		c0,0.829,0.672,1.5,1.5,1.5c0.828,0,1.5-0.671,1.5-1.5v-5.33C64.849,67.129,64.177,66.456,63.349,66.456"/>
	<path style="clip-path:url(#SVGID_2_);fill:#252831;" d="M40.896,66.456c-0.828,0-1.5,0.672-1.5,1.5v5.33
		c0,0.829,0.672,1.5,1.5,1.5c0.828,0,1.5-0.671,1.5-1.5v-5.33C42.396,67.129,41.724,66.456,40.896,66.456"/>
	<path style="clip-path:url(#SVGID_2_);fill:#252831;" d="M30.162,54.23c-0.828,0-1.5,0.671-1.5,1.5v17.557
		c0,0.829,0.672,1.5,1.5,1.5c0.828,0,1.5-0.671,1.5-1.5V55.73C31.662,54.901,30.99,54.23,30.162,54.23"/>
	<path style="clip-path:url(#SVGID_2_);fill:#252831;" d="M7.709,54.23c-0.828,0-1.5,0.671-1.5,1.5v17.557
		c0,0.829,0.672,1.5,1.5,1.5s1.5-0.671,1.5-1.5V55.73C9.209,54.901,8.537,54.23,7.709,54.23"/>
	<path style="clip-path:url(#SVGID_2_);fill:#F08604;" d="M18.32,23.376h3.14l1.956,4.225c0.246,0.531,0.778,0.87,1.361,0.87h0.046
		c0.601-0.019,1.132-0.394,1.351-0.953l1.62-4.141h4.361v5.685c0,3.206,2.608,5.814,5.814,5.814h1.671l2.07,5.537
		c0.215,0.573,0.755,0.958,1.366,0.974h0.038c0.597,0,1.139-0.354,1.376-0.902l2.438-5.609h8.224c3.206,0,5.814-2.608,5.814-5.814
		v-11.75c0-3.206-2.608-5.813-5.814-5.813H41.317V5.814C41.317,2.608,38.71,0,35.504,0H18.32c-3.206,0-5.814,2.608-5.814,5.814
		v11.75C12.506,20.768,15.114,23.376,18.32,23.376 M57.967,17.311v11.75c0,1.552-1.262,2.814-2.814,2.814h-9.208
		c-0.597,0-1.137,0.354-1.376,0.902l-1.348,3.105l-1.134-3.033c-0.22-0.586-0.779-0.975-1.405-0.975H37.97
		c-1.552,0-2.814-1.262-2.814-2.814V17.31c0-1.551,1.263-2.813,2.814-2.813h17.183C56.705,14.497,57.967,15.76,57.967,17.311
		 M15.506,5.812c0-1.552,1.263-2.814,2.814-2.814h17.184c1.552,0,2.813,1.262,2.813,2.814v5.685h-0.348
		c-3.206,0-5.814,2.608-5.814,5.813v3.065H26.77c-0.617,0-1.172,0.378-1.396,0.954l-0.713,1.82l-0.881-1.904
		c-0.246-0.53-0.777-0.87-1.361-0.87H18.32c-1.552,0-2.814-1.262-2.814-2.814V5.812z"/>
	<path style="clip-path:url(#SVGID_2_);fill:#F08604;" d="M42.31,29.489c0.106,0.036,0.214,0.053,0.321,0.053
		c0.417,0,0.805-0.263,0.947-0.679l0.581-1.713c0.025,0.002,0.046,0.014,0.069,0.014h4.079c0.091,0,0.174-0.029,0.259-0.052
		l0.595,1.751c0.142,0.417,0.529,0.68,0.946,0.68c0.107,0,0.215-0.018,0.322-0.053c0.522-0.177,0.802-0.745,0.626-1.268
		l-3.718-10.969c-0.106-0.311-0.354-0.518-0.644-0.613c-0.008-0.003-0.013-0.011-0.022-0.014c-0.017-0.005-0.033-0.002-0.05-0.006
		c-0.083-0.02-0.164-0.033-0.251-0.032c-0.089-0.002-0.171,0.011-0.253,0.032c-0.016,0.005-0.032,0.001-0.05,0.006
		c-0.008,0.003-0.014,0.01-0.022,0.013c-0.289,0.094-0.537,0.302-0.644,0.612l-3.718,10.968
		C41.507,28.744,41.787,29.311,42.31,29.489 M44.832,25.164l1.537-4.534l1.536,4.534H44.832z"/>
	<path style="clip-path:url(#SVGID_2_);fill:#F08604;" d="M18.913,8.314c0.995,0.486,2.416,0.676,3.909,0.717
		c-0.03,0.844-0.012,1.782,0.068,2.762c-0.619,0.35-1.18,0.771-1.624,1.269c-1.631,1.834-1.438,3.443-0.716,4.337
		c0.52,0.643,1.301,0.969,2.189,0.969c0.562,0,1.168-0.133,1.779-0.396c0.237,0.475,0.493,0.944,0.794,1.397
		c0.192,0.29,0.51,0.447,0.834,0.447c0.189,0,0.382-0.054,0.552-0.167c0.461-0.305,0.586-0.926,0.28-1.386
		c-0.308-0.465-0.563-0.953-0.793-1.449c0.932-0.951,1.736-2.317,2.39-3.721c0.628,0.333,0.698,0.795,0.69,1.127
		c-0.022,1.023-0.337,1.736-0.933,2.12c-0.465,0.299-0.599,0.917-0.3,1.382c0.3,0.465,0.919,0.599,1.382,0.3
		c0.817-0.526,1.802-1.605,1.851-3.757c0.029-1.336-0.663-2.421-1.912-3.018c0.074-0.193,0.145-0.383,0.213-0.569
		c0.188-0.519-0.08-1.093-0.599-1.281c-0.52-0.188-1.093,0.08-1.282,0.599c-0.094,0.26-0.189,0.514-0.286,0.76
		c-0.83-0.064-1.706,0.023-2.551,0.242c-0.035-0.7-0.036-1.37-0.012-1.985c2.51-0.125,4.802-0.532,5.239-0.613
		c0.543-0.101,0.901-0.623,0.801-1.166c-0.102-0.543-0.624-0.899-1.166-0.801c-0.981,0.182-2.824,0.45-4.711,0.563
		c0.119-0.964,0.253-1.575,0.257-1.596c0.125-0.538-0.209-1.075-0.747-1.201c-0.538-0.124-1.075,0.208-1.2,0.746
		c-0.024,0.102-0.201,0.895-0.338,2.099c-1.287-0.023-2.448-0.167-3.182-0.526c-0.493-0.242-1.095-0.037-1.337,0.459
		C18.211,7.473,18.417,8.072,18.913,8.314 M22.105,16.142c-0.206-0.255-0.09-0.913,0.655-1.75c0.13-0.147,0.278-0.281,0.433-0.408
		c0.139,0.711,0.322,1.428,0.561,2.141C22.914,16.496,22.3,16.379,22.105,16.142 M26.521,12.757
		c-0.37,0.744-0.744,1.375-1.115,1.889c-0.144-0.541-0.265-1.084-0.35-1.621C25.541,12.879,26.041,12.787,26.521,12.757"/>
</g>
</svg>
