<?xml version="1.0" encoding="utf-8"?>
<!-- Generator: Adobe Illustrator 22.1.0, SVG Export Plug-In . SVG Version: 6.00 Build 0)  -->
<svg version="1.1" id="Слой_1" xmlns="http://www.w3.org/2000/svg" xmlns:xlink="http://www.w3.org/1999/xlink" x="0px" y="0px"
	 viewBox="0 0 258.5 80.2" style="enable-background:new 0 0 258.5 80.2;" xml:space="preserve">
<style type="text/css">
	.st0{fill:#34343B;}
</style>
<title>mandarin_ logotype(final)</title>
<g>
	<path class="st0" d="M23.2,61.2h47v5.5c-2.2,2.5-4.8,4.8-7.6,6.7h-11v-6.5h-4.9h-4.9v6.5H23.2V61.2z M63.7,44.1v-8.9H29.6v8.9h7.2
		v-3.2h5.8v3.2h8.1v-3.2h5.8v3.2L63.7,44.1z M73.9,52.8c-2.3-1.1-4.5-2.6-6.4-4.3l-0.3-0.3h-41l-0.4,0.3c-1.9,1.7-4,3.2-6.4,4.3
		c-1,0.4-2.1,0.8-3.2,1.1l-1.2,0.3l1.1,1.4l0.1,0.1c0,0,0.1,0.1,0.1,0.1c0.7,0.6,1.6,1.2,4.6,1.2h51.4c3,0,3.9-0.6,4.6-1.2
		c0,0,0.1-0.1,0.1-0.1c0.2-0.5,0.5-1.1,0.7-1.7L77,53.9C76,53.6,74.9,53.3,73.9,52.8z M40.1,80.2c4.9,0,9.8-0.9,14.4-2.7H25.7
		C30.3,79.3,35.2,80.2,40.1,80.2z M40.1,0C18,0,0,18,0,40.1c0,13.8,7.1,26.7,18.9,34v-13l-1.5-0.5c-3.4-1.2-6.2-3.7-7.7-7l-0.1-0.3
		l0.1-2.9c0.7,0.1,1.5,0.2,2.3,0.2c0.5,0,1,0,1.5-0.1c5-0.7,11-6.1,11.7-6.8l0.4-0.4v-9.2l-0.9-0.5c-2.3-1.4-4.2-3.6-5.3-6.1
		l-0.1-0.2v-2.5c0.7,0.1,1.5,0.1,2.2,0.1c0.7,0,1.4,0,2.1-0.1c8.8-1,20.2-13.8,22.5-16.3h1.7c2.2,2.6,13.7,15.3,22.5,16.3
		C70.6,25,71.3,25,72,25c0.7,0,1.5,0,2.2-0.1v2.5l-0.1,0.2c-1.1,2.5-2.9,4.7-5.3,6.1L68,34.2v9.2l0.4,0.4c0.6,0.6,5.8,5.2,10.5,6.5
		c5.6-21.4-7.2-43.4-28.6-49C47,0.4,43.6,0,40.1,0L40.1,0z M69.6,28.3l-3-0.4c-2.3-0.6-4.5-1.6-6.4-3c-4.4-2.8-12.6-10.3-13-10.6
		l-0.6-0.5l-0.6,0.5c-0.3,0.3-8.6,7.8-13,10.6c-1.9,1.4-4.1,2.4-6.4,3l-3,0.4l2.5,1.7c1.2,0.8,2.6,1.2,4,1.2h32.9
		c1.4,0,2.8-0.4,4-1.2L69.6,28.3z"/>
	<g>
		<g>
			<path class="st0" d="M116.3,18.9h2.7v25h-2.2V24.6l-6.1,19.3h-1.6l-6.1-19.3v19.3h-2.3v-25h2.8l6.3,20.3L116.3,18.9z"/>
			<path class="st0" d="M139.7,43.9l-2-7.6h-7l-2,7.6h-2.4l6.4-25h2.9l6.4,25L139.7,43.9z M131,33.9h6.3l-3.1-12.2L131,33.9z"/>
			<path class="st0" d="M160.8,18.9h2.2v25h-2.3l-9.3-19.7v19.7h-2.3v-25h2.3l9.3,19.7L160.8,18.9z"/>
			<path class="st0" d="M170.8,18.9h6.4c0.9,0,1.8,0.1,2.6,0.4c0.8,0.3,1.6,0.8,2.3,1.4c0.8,0.7,1.4,1.6,1.7,2.7
				c0.4,1.3,0.7,2.8,0.6,4.2v7.7c0,1.4-0.2,2.8-0.6,4.2c-0.3,1-0.9,1.9-1.7,2.7c-0.7,0.6-1.5,1-2.3,1.4c-0.8,0.3-1.7,0.4-2.6,0.4
				h-6.4V18.9z M182.1,34.9v-7.1c0-2.4-0.5-4.1-1.4-5.2c-0.9-1-2.2-1.6-3.5-1.6h-4.1v20.5h4.1c1.3,0,2.6-0.5,3.5-1.6
				C181.7,39.1,182.1,37.3,182.1,34.9z"/>
			<path class="st0" d="M204.2,43.9l-2-7.6h-7l-2,7.6h-2.4l6.4-25h2.9l6.4,25L204.2,43.9z M195.5,33.9h6.3l-3.1-12.2L195.5,33.9z"/>
			<path class="st0" d="M213.8,18.9h5.8c0.9,0,1.8,0.1,2.7,0.3c0.8,0.2,1.6,0.6,2.4,1c0.8,0.5,1.4,1.2,1.8,2c0.5,1,0.7,2,0.7,3.1v1
				c0.1,1.4-0.4,2.7-1.3,3.8c-0.9,1-2,1.6-3.3,2l4.8,11.7h-2.5l-4.5-11h-4.3v11h-2.3L213.8,18.9z M224.8,26.1v-0.3
				c0-0.8-0.1-1.5-0.4-2.2c-0.2-0.6-0.6-1.1-1.1-1.4c-0.5-0.3-1-0.6-1.6-0.7c-0.6-0.1-1.2-0.2-1.8-0.2h-3.7v9.5h3.7
				c0.6,0,1.2-0.1,1.8-0.2c0.6-0.1,1.1-0.4,1.6-0.7c0.5-0.4,0.9-0.9,1.1-1.4C224.6,27.6,224.8,26.8,224.8,26.1L224.8,26.1z"/>
			<path class="st0" d="M234.6,43.9v-25h2.4v25H234.6z"/>
			<path class="st0" d="M256.3,18.9h2.2v25h-2.3L247,24.2v19.7h-2.3v-25h2.3l9.3,19.7L256.3,18.9z"/>
		</g>
		<g>
			<path class="st0" d="M104.6,54.4c0,0.1-0.1,0.1-0.2,0.1c-0.1,0-0.2-0.1-0.2-0.1c-0.1-0.1-0.2-0.2-0.4-0.3
				c-0.2-0.1-0.4-0.2-0.6-0.3c-0.6-0.2-1.2-0.2-1.8,0c-0.2,0.1-0.5,0.2-0.7,0.4c-0.2,0.2-0.3,0.4-0.4,0.6c-0.1,0.2-0.1,0.5-0.1,0.7
				c0,0.3,0.1,0.6,0.2,0.8c0.1,0.2,0.3,0.4,0.5,0.5c0.2,0.2,0.5,0.3,0.8,0.4c0.3,0.1,0.6,0.2,0.9,0.3s0.6,0.2,0.9,0.3
				c0.3,0.1,0.5,0.3,0.8,0.4c0.2,0.2,0.4,0.4,0.5,0.7c0.1,0.3,0.2,0.6,0.2,1c0,0.4-0.1,0.8-0.2,1.1c-0.1,0.3-0.3,0.7-0.6,0.9
				c-0.3,0.3-0.6,0.5-0.9,0.6c-0.4,0.2-0.8,0.2-1.3,0.2c-0.6,0-1.1-0.1-1.6-0.3c-0.5-0.2-0.9-0.5-1.2-0.9l0.2-0.3
				c0-0.1,0.1-0.1,0.2-0.1c0.1,0,0.1,0,0.2,0.1c0.1,0.1,0.1,0.1,0.2,0.2s0.2,0.2,0.3,0.3c0.1,0.1,0.3,0.2,0.4,0.3
				c0.2,0.1,0.4,0.2,0.6,0.2c0.2,0.1,0.5,0.1,0.7,0.1c0.3,0,0.7-0.1,1-0.2c0.3-0.1,0.5-0.3,0.7-0.5c0.2-0.2,0.4-0.4,0.5-0.7
				c0.1-0.3,0.2-0.6,0.2-0.9c0-0.3-0.1-0.6-0.2-0.8c-0.1-0.2-0.3-0.4-0.5-0.5c-0.2-0.2-0.5-0.3-0.8-0.4c-0.3-0.1-0.6-0.2-0.9-0.3
				c-0.3-0.1-0.6-0.2-0.9-0.3c-0.3-0.1-0.5-0.3-0.8-0.4c-0.2-0.2-0.4-0.4-0.5-0.7c-0.1-0.3-0.2-0.7-0.2-1c0-0.3,0.1-0.6,0.2-0.9
				c0.1-0.3,0.3-0.6,0.5-0.8c0.2-0.2,0.5-0.4,0.9-0.5c0.4-0.1,0.8-0.2,1.2-0.2c0.5,0,0.9,0.1,1.3,0.2c0.4,0.2,0.8,0.4,1.1,0.7
				L104.6,54.4z"/>
			<path class="st0" d="M115.3,61.2c0,0,0.1,0,0.1,0l0.3,0.3c-0.2,0.2-0.4,0.4-0.6,0.6c-0.2,0.2-0.5,0.3-0.8,0.4
				c-0.3,0.1-0.6,0.2-0.9,0.3c-0.4,0.1-0.7,0.1-1.1,0.1c-0.6,0-1.2-0.1-1.8-0.3c-0.5-0.2-1-0.6-1.4-1c-0.4-0.4-0.7-1-0.9-1.5
				c-0.2-0.6-0.3-1.3-0.3-2c0-0.7,0.1-1.3,0.3-2c0.2-0.6,0.5-1.1,0.9-1.5c0.4-0.4,0.9-0.8,1.4-1c0.6-0.2,1.2-0.4,1.9-0.4
				c0.6,0,1.2,0.1,1.7,0.3c0.5,0.2,1,0.5,1.4,0.8l-0.2,0.3c0,0.1-0.1,0.1-0.2,0.1c-0.1,0-0.2-0.1-0.3-0.1c-0.2-0.1-0.3-0.2-0.5-0.3
				c-0.3-0.1-0.5-0.2-0.8-0.3c-0.4-0.1-0.8-0.2-1.1-0.1c-0.5,0-1.1,0.1-1.6,0.3c-0.5,0.2-0.9,0.5-1.2,0.8c-0.4,0.4-0.6,0.8-0.8,1.3
				c-0.4,1.2-0.4,2.4,0,3.6c0.2,0.5,0.4,0.9,0.8,1.3c0.3,0.4,0.7,0.6,1.2,0.8c0.5,0.2,1,0.3,1.5,0.3c0.3,0,0.6,0,0.9-0.1
				c0.3,0,0.5-0.1,0.7-0.2c0.2-0.1,0.4-0.2,0.6-0.3c0.2-0.1,0.4-0.3,0.6-0.5C115.2,61.2,115.2,61.2,115.3,61.2
				C115.3,61.2,115.3,61.2,115.3,61.2z"/>
			<path class="st0" d="M126,62.8h-0.7v-4.5h-5.9v4.5h-0.7v-9.5h0.7v4.4h5.9v-4.4h0.7L126,62.8z"/>
			<path class="st0" d="M138.5,58c0,0.7-0.1,1.4-0.3,2c-0.2,0.6-0.5,1.1-0.9,1.5c-0.4,0.4-0.9,0.8-1.4,1c-1.2,0.5-2.5,0.5-3.7,0
				c-0.5-0.2-1-0.6-1.4-1c-0.4-0.4-0.7-1-0.9-1.5c-0.4-1.3-0.4-2.7,0-4c0.2-0.6,0.5-1.1,0.9-1.5c0.4-0.4,0.9-0.8,1.4-1
				c0.6-0.2,1.2-0.4,1.8-0.3c0.6,0,1.3,0.1,1.8,0.3c0.5,0.2,1,0.6,1.4,1c0.4,0.4,0.7,1,0.9,1.5C138.4,56.7,138.6,57.3,138.5,58z
				 M137.8,58c0-0.6-0.1-1.2-0.3-1.8c-0.2-0.5-0.4-0.9-0.8-1.3c-0.3-0.4-0.7-0.7-1.2-0.8c-1-0.4-2.1-0.4-3.1,0
				c-0.5,0.2-0.9,0.5-1.2,0.8c-0.3,0.4-0.6,0.8-0.8,1.3c-0.4,1.2-0.4,2.4,0,3.6c0.2,0.5,0.4,0.9,0.8,1.3c0.3,0.4,0.7,0.7,1.2,0.8
				c1,0.4,2.1,0.4,3.1,0c0.5-0.2,0.9-0.5,1.2-0.8c0.3-0.4,0.6-0.8,0.8-1.3C137.8,59.2,137.8,58.6,137.8,58L137.8,58z"/>
			<path class="st0" d="M150.5,58c0,0.7-0.1,1.4-0.3,2c-0.2,0.6-0.5,1.1-0.9,1.5c-0.4,0.4-0.9,0.8-1.4,1c-1.2,0.5-2.5,0.5-3.7,0
				c-0.5-0.2-1-0.6-1.4-1c-0.4-0.4-0.7-1-0.9-1.5c-0.4-1.3-0.4-2.7,0-4c0.2-0.6,0.5-1.1,0.9-1.5c0.4-0.4,0.9-0.8,1.4-1
				c0.6-0.2,1.2-0.4,1.8-0.3c0.6,0,1.3,0.1,1.8,0.3c0.5,0.2,1,0.6,1.4,1c0.4,0.4,0.7,1,0.9,1.5C150.4,56.7,150.5,57.3,150.5,58z
				 M149.8,58c0-0.6-0.1-1.2-0.3-1.8c-0.2-0.5-0.4-0.9-0.8-1.3c-0.3-0.4-0.7-0.7-1.2-0.8c-1-0.4-2.1-0.4-3.1,0
				c-0.5,0.2-0.9,0.5-1.2,0.8c-0.3,0.4-0.6,0.8-0.8,1.3c-0.4,1.2-0.4,2.4,0,3.6c0.2,0.5,0.4,0.9,0.8,1.3c0.3,0.4,0.7,0.7,1.2,0.8
				c1,0.4,2.1,0.4,3.1,0c0.5-0.2,0.9-0.5,1.2-0.8c0.3-0.4,0.6-0.8,0.8-1.3C149.7,59.2,149.8,58.6,149.8,58L149.8,58z"/>
			<path class="st0" d="M154.6,62.2h4.5v0.6h-5.2v-9.5h0.7L154.6,62.2z"/>
		</g>
	</g>
</g>
</svg>
