<?xml version="1.0" encoding="utf-8"?>
<!-- Generator: Adobe Illustrator 22.1.0, SVG Export Plug-In . SVG Version: 6.00 Build 0)  -->
<svg version="1.1" id="Capa_1" xmlns="http://www.w3.org/2000/svg" xmlns:xlink="http://www.w3.org/1999/xlink" x="0px" y="0px"
	 viewBox="0 0 512 512" style="enable-background:new 0 0 512 512;" xml:space="preserve">
<style type="text/css">
	.st0{fill:#FFFFFF;}
</style>
<g>
	<g>
		<g>
			<path class="st0" d="M488,16H360v16h128c4.4,0,8,3.6,8,8v256h-24V64c0-4.4-3.6-8-8-8h-40v16h32v224h-88v-24h40c4.4,0,8-3.6,8-8
				v-17.4c9.3-3.3,16-12.2,16-22.6c0-13.3-10.7-24-24-24s-24,10.7-24,24c0,10.4,6.7,19.3,16,22.6v9.4h-40c-4.4,0-8,3.6-8,8v32H56
				v-96h40v40c0,4.4,3.6,8,8,8h25.4c3.3,9.3,12.2,16,22.6,16c13.3,0,24-10.7,24-24s-10.7-24-24-24c-10.4,0-19.3,6.7-22.6,16H112v-40
				c0-4.4-3.6-8-8-8H56V72h32V56H48c-4.4,0-8,3.6-8,8v232H16V40c0-4.4,3.6-8,8-8h128V16H24C10.7,16,0,26.7,0,40v352c0,4.4,3.6,8,8,8
				h182.2l-12.8,64H160c-4.4,0-8,3.6-8,8v24h-16v16h240v-16h-16v-24c0-4.4-3.6-8-8-8h-17.5l-12.8-64H504c4.4,0,8-3.6,8-8V40
				C512,26.7,501.3,16,488,16z M408,216c4.4,0,8,3.6,8,8s-3.6,8-8,8s-8-3.6-8-8S403.6,216,408,216z M152,232c4.4,0,8,3.6,8,8
				s-3.6,8-8,8s-8-3.6-8-8S147.6,232,152,232z M344,496H168v-16h16h144h16V496z M318.2,464H193.8l12.8-64h98.9L318.2,464z M16,384
				v-72h480v72H16z"/>
			<path class="st0" d="M256,320c-13.3,0-24,10.7-24,24s10.7,24,24,24c13.3,0,24-10.7,24-24S269.3,320,256,320z M256,352
				c-4.4,0-8-3.6-8-8s3.6-8,8-8s8,3.6,8,8S260.4,352,256,352z"/>
			<path class="st0" d="M112.8,68.6c-1.9,4-0.2,8.8,3.8,10.6L152,95.9V168c0,3,1.7,5.8,4.4,7.2l96.1,48c1.1,0.6,2.3,0.8,3.6,0.8
				c1.1,0,2.3-0.2,3.3-0.7l87.9-40c2.9-1.3,4.7-4.1,4.7-7.3V99.7l32-15.1V112h-8c-4.4,0-8,3.6-8,8v48c0,4.4,3.6,8,8,8h32
				c4.4,0,8-3.6,8-8v-48c0-4.4-3.6-8-8-8h-8V72.3c0,0,0,0,0-0.1V72c0,0,0,0,0-0.1c0-0.2,0-0.5,0-0.7c0-0.1,0-0.1,0-0.2
				c0-0.2-0.1-0.4-0.1-0.6c0-0.1,0-0.2,0-0.2c0-0.2-0.1-0.3-0.1-0.5c0-0.1-0.1-0.2-0.1-0.3c-0.1-0.2-0.1-0.3-0.2-0.5
				c0-0.1-0.1-0.2-0.1-0.3c-0.1-0.2-0.1-0.3-0.2-0.5c0-0.1-0.1-0.1-0.1-0.2c-0.1-0.2-0.2-0.3-0.3-0.5c0-0.1-0.1-0.1-0.1-0.2
				c-0.1-0.2-0.2-0.3-0.4-0.5l-0.1-0.1c-0.1-0.2-0.3-0.3-0.4-0.4l-0.1-0.1c-0.1-0.1-0.3-0.3-0.4-0.4c-0.1,0-0.1-0.1-0.2-0.1
				c-0.1-0.1-0.3-0.2-0.4-0.3c-0.1-0.1-0.2-0.1-0.2-0.2c-0.1-0.1-0.3-0.2-0.4-0.2c-0.1-0.1-0.2-0.1-0.3-0.2c-0.1,0-0.1-0.1-0.2-0.1
				l-136-64c-2.2-1-4.7-1-6.8,0l-136,64C114.9,65.6,113.5,66.9,112.8,68.6z M400,160h-16v-32h16V160z M336,170.9l-79.8,36.4
				L168,163.1v-59.6l80,37.6V184h16v-42.9l72-33.9V170.9z M256,16.8L356.2,64H256v-8h-16v32h16v-8h100.2L256,127.2L138.8,72
				L256,16.8z"/>
		</g>
	</g>
</g>
</svg>
