<?xml version="1.0" encoding="utf-8"?>
<!-- Generator: Adobe Illustrator 19.0.1, SVG Export Plug-In . SVG Version: 6.00 Build 0)  -->
<svg version="1.1" id="Capa_1" xmlns="http://www.w3.org/2000/svg" xmlns:xlink="http://www.w3.org/1999/xlink" x="0px" y="0px"
	 viewBox="-41 189.8 512 456.1" style="enable-background:new -41 189.8 512 456.1;" xml:space="preserve">
<style type="text/css">
	.st0{fill:#D4D7DA;}
</style>
<g>
	<g>
		<path class="st0" d="M471,510.9c0-19.6-12.5-36.2-30-42.4V355.1l21.7-10.8c5.1-2.5,8.3-7.7,8.3-13.4c0-5.7-3.2-10.9-8.3-13.4
			l-241-120c-4.2-2.1-9.2-2.1-13.4,0l-241,120c-5.1,2.5-8.3,7.7-8.3,13.4s3.2,10.9,8.3,13.4L59.1,390L80.4,477
			c0.8,3.4,2.8,6.3,5.6,8.4c37.5,28.1,82.1,43,129,43s91.5-14.9,129-43c2.8-2.1,4.7-5.1,5.6-8.4l21.3-86.9l40.1-20v98.4
			c-17.5,6.2-30,22.9-30,42.4c0,14.2,6.6,26.9,17,35.2c-8.7,10.1-17,23.8-17,39.8c0,31.9,32.9,54.9,36.6,57.5
			c5.1,3.4,11.7,3.4,16.7,0c3.8-2.5,36.6-25.5,36.6-57.5c0-16-8.3-29.8-17-39.8C464.4,537.8,471,525.1,471,510.9z M321.7,464.5
			c-63.6,44.9-149.9,44.9-213.5,0l-14-57l114,56.8c4.2,2.1,9.2,2.1,13.4,0l114-56.8L321.7,464.5z M215,434.1
			C206.7,430,17,335.5,7.7,330.9L215,227.6l207.3,103.2C418.3,332.9,225,429.2,215,434.1z M426,611.6c-7-6.6-15-16.4-15-25.7
			c0-9.2,8-19,15-25.7c7,6.6,15,16.4,15,25.7C441,595.1,433,604.9,426,611.6z M426,525.9c-8.3,0-15-6.7-15-15s6.7-15,15-15
			s15,6.7,15,15S434.3,525.9,426,525.9z"/>
	</g>
</g>
<g>
	<g>
		<path class="st0" d="M289.2,293.9c-5.9-5.9-15.4-5.9-21.2,0c-14.2,14.2-33,22-53,22s-38.9-7.8-53-22c-5.9-5.9-15.4-5.9-21.2,0
			s-5.9,15.4,0,21.2c19.8,19.8,46.2,30.8,74.2,30.8c28,0,54.4-10.9,74.2-30.8C295.1,309.3,295.1,299.8,289.2,293.9z"/>
	</g>
</g>
</svg>
