<?xml version="1.0" encoding="iso-8859-1"?>
<!-- Generator: Adobe Illustrator 19.0.0, SVG Export Plug-In . SVG Version: 6.00 Build 0)  -->
<svg version="1.1" id="Capa_1" xmlns="http://www.w3.org/2000/svg" xmlns:xlink="http://www.w3.org/1999/xlink" x="0px" y="0px"
	 viewBox="0 0 512 512" style="enable-background:new 0 0 512 512;" xml:space="preserve">
<g>
	<g>
		<path d="M489.107,93.296c-12.3-8.231-12.3-26.222,0-34.453c7.061-4.702,8.965-14.238,4.263-21.284
			c-4.702-7.046-14.238-8.965-21.284-4.263c-30.511,20.319-30.504,65.232,0,85.547c12.28,8.197,12.331,26.222,0,34.453
			c-7.061,4.702-8.965,14.224-4.263,21.284c4.688,7.033,14.188,8.98,21.284,4.263C519.651,158.501,519.61,113.611,489.107,93.296z"
			/>
	</g>
</g>
<g>
	<g>
		<path d="M285,150h-32.701c1.501-4.801,2.701-9.6,2.701-15c0-24.9-20.099-45-45-45s-45,20.1-45,45c0,5.4,1.199,10.199,2.701,15H135
			c-25.869,0-45,21.13-45,45v15h240v-15C330,171.13,310.869,150,285,150z"/>
	</g>
</g>
<g>
	<g>
		<path d="M389.099,274.2c0-1.501-0.298-3.001-0.599-4.2c-3.787-17.507-19.27-30-37.181-30H68.681C47.721,240,30,255.118,30,285v15
			h165c8.401,0,15,6.599,15,15v107c0,36-16.199,68.099-41.4,90H315c35.881,0,75-27.2,75-75V285C390,281.4,389.7,277.8,389.099,274.2
			z"/>
	</g>
</g>
<g>
	<g>
		<path d="M15,330c-8.291,0-15,6.709-15,15v77c0,49.629,40.371,90,90,90s90-40.371,90-90v-92C115.883,330,80.367,330,15,330z"/>
	</g>
</g>
<g>
	<g>
		<path d="M497,209.828c-33.261,0-64.558,15.85-83.81,40.063c1.974,4.321,3.66,8.804,4.695,13.579
			c0.571,2.329,0.967,4.907,1.157,7.529c0.674,4.6,1.011,9.214,1.011,13.828v152c0,4.786-0.85,9.122-1.395,13.623
			C453.519,444.015,482,413.522,482,376.828v-62c0-8.276,6.724-15,15-15c8.291,0,15-6.709,15-15v-60
			C512,216.537,505.291,209.828,497,209.828z"/>
	</g>
</g>
<g>
	<g>
		<path d="M210.654,0c-89.7,0-180.601,57.127-180.601,164.828v57.305c9.06-6.319,19.163-10.115,29.8-11.484v-45.821
			C59.853,72.728,138.052,30,210.654,30c76.8,0,149.399,46.027,149.399,134.828v45.765c10.97,1.439,20.972,5.544,29.8,11.704
			v-57.469C389.853,60.427,305.453,0,210.654,0z"/>
	</g>
</g>
<g>
</g>
<g>
</g>
<g>
</g>
<g>
</g>
<g>
</g>
<g>
</g>
<g>
</g>
<g>
</g>
<g>
</g>
<g>
</g>
<g>
</g>
<g>
</g>
<g>
</g>
<g>
</g>
<g>
</g>
</svg>
