<?xml version="1.0" encoding="utf-8"?>
<!-- Generator: Adobe Illustrator 22.1.0, SVG Export Plug-In . SVG Version: 6.00 Build 0)  -->
<svg version="1.1" id="Слой_1" xmlns="http://www.w3.org/2000/svg" xmlns:xlink="http://www.w3.org/1999/xlink" x="0px" y="0px"
	 viewBox="0 0 205.2 131" style="enable-background:new 0 0 205.2 131;" xml:space="preserve">
<style type="text/css">
	.st0{fill:none;stroke:#DADADA;stroke-width:5;}
</style>
<g>
	<g>
		<path class="st0" d="M113.8,72.9c0,12.3,9.9,22.2,22.2,22.2s22.2-9.9,22.2-22.2H113.8L113.8,72.9z"/>
		<path class="st0" d="M136,72.9V28.4h66.7v100h-40.7h25.9V98.8H136v-3.7c12.3,0,22.2-9.9,22.2-22.2H136L136,72.9z"/>
		<rect x="2.7" y="98.8" class="st0" width="185.2" height="29.6"/>
		<rect x="136" y="2.5" class="st0" width="66.7" height="25.9"/>
		<path class="st0" d="M110.1,95.1c-12.3,0-22.2-9.9-22.2-22.2h25.9c0,7.4,3.7,14,9.3,18.1C119.4,93.5,114.9,95.1,110.1,95.1z"/>
		<path class="st0" d="M24.3,87.3c-2.3-1.5-4.2-4.9-4.2-7.7V67.7c0-1.4-0.8-3.3-1.8-4.2l-6.5-6.2c-1-1-0.7-1.7,0.7-1.7h70.4
			c1.4,0,1.7,0.8,0.7,1.7l-6.5,6.2c-1,1-1.8,2.9-1.8,4.2v11.9c0,2.8-1.9,6.2-4.2,7.7L62.4,93c-1.2,0.7-3.2,1.4-4.6,1.4H37.6
			c-1.4,0-3.4-0.6-4.6-1.4L24.3,87.3z"/>
		<path class="st0" d="M13.7,50.3L38.5,42c0,0-5.6-9.7,8.2-9.7S55,42,55,42l26.8,8.3"/>
	</g>
</g>
</svg>
