<?xml version="1.0" encoding="utf-8"?>
<!-- Generator: Adobe Illustrator 22.1.0, SVG Export Plug-In . SVG Version: 6.00 Build 0)  -->
<svg version="1.1" id="Capa_1" xmlns="http://www.w3.org/2000/svg" xmlns:xlink="http://www.w3.org/1999/xlink" x="0px" y="0px"
	 viewBox="0 0 512 512" style="enable-background:new 0 0 512 512;" xml:space="preserve">
<style type="text/css">
	.st0{fill:#DADADA;}
</style>
<g>
	<g>
		<path class="st0" d="M512,346c0-19.6-12.5-36.2-30-42.4V190.2l21.7-10.8c5.1-2.5,8.3-7.7,8.3-13.4s-3.2-10.9-8.3-13.4l-241-120
			c-4.2-2.1-9.2-2.1-13.4,0l-241,120C3.2,155.1,0,160.3,0,166s3.2,10.9,8.3,13.4l91.8,45.7l21.3,86.9c0.8,3.4,2.8,6.3,5.6,8.4
			c37.5,28.1,82.1,43,129,43s91.5-14.9,129-43c2.8-2.1,4.7-5.1,5.6-8.4l21.3-86.9l40.1-20v98.4c-17.5,6.2-30,22.9-30,42.4
			c0,14.2,6.6,26.9,17,35.2c-8.7,10.1-17,23.8-17,39.8c0,31.9,32.9,54.9,36.6,57.5c5.1,3.4,11.7,3.4,16.7,0
			c3.8-2.5,36.6-25.5,36.6-57.5c0-16-8.3-29.8-17-39.8C505.4,372.9,512,360.2,512,346z M362.7,299.6c-63.6,44.9-149.9,44.9-213.5,0
			l-14-57l114,56.8c4.2,2.1,9.2,2.1,13.4,0l114-56.8L362.7,299.6z M256,269.2c-8.3-4.1-198-98.6-207.3-103.2L256,62.8L463.3,166
			C459.3,168,266,264.3,256,269.2z M467,446.7c-7-6.6-15-16.4-15-25.7c0-9.2,8-19,15-25.7c7,6.6,15,16.4,15,25.7
			C482,430.2,474,440,467,446.7z M467,361c-8.3,0-15-6.7-15-15s6.7-15,15-15s15,6.7,15,15S475.3,361,467,361z"/>
	</g>
</g>
<g>
	<g>
		<path class="st0" d="M330.2,129c-5.9-5.9-15.4-5.9-21.2,0c-14.2,14.2-33,22-53,22s-38.9-7.8-53-22c-5.9-5.9-15.4-5.9-21.2,0
			c-5.8,5.9-5.9,15.4,0,21.2C201.6,170.1,228,181,256,181s54.4-10.9,74.2-30.8C336.1,144.4,336.1,134.9,330.2,129z"/>
	</g>
</g>
</svg>
