<?xml version="1.0" encoding="utf-8"?>
<!-- Generator: Adobe Illustrator 22.1.0, SVG Export Plug-In . SVG Version: 6.00 Build 0)  -->
<svg version="1.1" id="Layer_1" xmlns="http://www.w3.org/2000/svg" xmlns:xlink="http://www.w3.org/1999/xlink" x="0px" y="0px"
	 viewBox="0 0 512 512" style="enable-background:new 0 0 512 512;" xml:space="preserve">
<style type="text/css">
	.st0{fill:#FFFFFF;}
</style>
<g>
	<g>
		<circle class="st0" cx="441.6" cy="338.1" r="10"/>
	</g>
</g>
<g>
	<g>
		<circle class="st0" cx="61" cy="338.1" r="10"/>
	</g>
</g>
<g>
	<g>
		<path class="st0" d="M494.3,492h-85.9l-0.5-245.8c0-5.5-4.5-10-10-10l0,0c-5.5,0-10,4.5-10,10l0.5,245.7h-29l-0.3-109.3
			c0-5.5-4.5-10-10-10l0,0c-5.5,0-10,4.5-10,10l0.3,109.3h-24.3V359.6c28.3-2.5,50.6-25.8,50.6-54v-96.9c0-15.4-3.3-30.5-9.5-44.5
			c19.8,1.3,38.1,9.4,52.3,23c15.5,14.9,24,34.8,24.1,56l0.2,56.9c0,5.5,4.5,10,10,10l0,0c5.5,0,10-4.5,10-10l-0.2-56.9
			c-0.1-26.6-10.8-51.6-30.2-70.3c-11.1-10.7-24.2-18.6-38.6-23.4c10.2-9.7,16.5-23.3,16.5-38.4c-0.1-29.1-23.8-52.8-52.9-52.8h-0.1
			c-8.5,0-16.9,2.1-24.4,6c-4.9,2.6-6.8,8.6-4.2,13.5c2.6,4.9,8.6,6.8,13.5,4.2c4.7-2.5,9.8-3.7,15.2-3.7c18.2,0,32.9,14.7,33,32.8
			s-14.7,32.9-32.8,33c-0.4,0-0.9,0-1.3,0.1c-0.5,0-1.1,0-1.6,0.1c-14.5-19.8-34.7-34.1-57.8-41.4c12.3-10.8,20-26.5,20-44.1
			C306.7,26.3,280.3,0,248,0c-32.4,0-58.7,26.3-58.7,58.7c0,18.4,8.5,34.9,21.8,45.6c-21.2,7.7-39.8,21.4-53.3,39.8
			c-1.6-0.1-3.2-0.1-4.7-0.1c-0.7,0-1.5,0-2.2,0c-0.2,0-0.4,0-0.5,0c-18.1,0-32.9-14.8-32.9-32.9s14.8-32.9,32.9-32.9
			c5.5,0,10.9,1.4,15.7,4c4.9,2.6,10.9,0.8,13.6-4c2.6-4.9,0.8-10.9-4-13.6c-7.7-4.2-16.4-6.4-25.2-6.4c-29.2,0-52.9,23.7-52.9,52.9
			c0,15.9,7.1,30.2,18.2,39.9c-38,14.5-64.8,50.5-64.8,92.4v56.7c0,5.5,4.5,10,10,10s10-4.5,10-10v-56.7c0-41.5,33.1-75.6,75.1-79.1
			c-6.2,13.9-9.5,29-9.5,44.4v96.9c0,28.8,23.1,52.4,52.3,54.1V492h-27.2V382.7c0-5.5-4.5-10-10-10s-10,4.5-10,10V492H117V246.3
			c0-5.5-4.5-10-10-10s-10,4.5-10,10V492H17.7c-5.5,0-10,4.5-10,10s4.5,10,10,10h476.6c5.5,0,10-4.5,10-10
			C504.3,496.5,499.8,492,494.3,492z M209.3,58.7c0-21.3,17.3-38.7,38.7-38.7s38.7,17.3,38.7,38.7S269.3,97.3,248,97.3
			S209.3,80,209.3,58.7z M305.1,202.1c-5.5,0-10,4.5-10,10V492h-35.6V352.8c0-5.5-4.5-10-10-10s-10,4.5-10,10V492h-30.6V212.1
			c0-5.5-4.5-10-10-10s-10,4.5-10,10v127.6c-18.1-1.6-32.3-16.3-32.3-34.1v-96.9c0-17.3,5-34.2,14.6-48.7
			c17.5-26.7,47.3-42.6,79.9-42.6c32.7,0,62.6,16,80,42.7c9.5,14.5,14.5,31.4,14.5,48.6v96.9c0,17.2-13.3,31.5-30.6,33.9V212.1
			C315.1,206.5,310.6,202.1,305.1,202.1z"/>
	</g>
</g>
</svg>
