<?xml version="1.0" encoding="utf-8"?>
<!-- Generator: Adobe Illustrator 22.1.0, SVG Export Plug-In . SVG Version: 6.00 Build 0)  -->
<svg version="1.1" id="Слой_1" xmlns="http://www.w3.org/2000/svg" xmlns:xlink="http://www.w3.org/1999/xlink" x="0px" y="0px"
	 viewBox="0 0 75 75" style="enable-background:new 0 0 75 75;" xml:space="preserve">
<title>Combined Shape</title>
<desc>Created with Sketch.</desc>
<g>
	<g transform="translate(-668.000000, -222.000000)">
		<path d="M669,259.5c0-20.2,16.3-36.5,36.5-36.5s36.5,16.3,36.5,36.5S725.7,296,705.5,296S669,279.7,669,259.5z M714,264l-3,3
			c-0.5,0.5-1.4,0.6-2,0.3c-0.2-0.1-0.3-0.2-0.5-0.3c-0.4-0.2-0.8-0.5-1.3-0.8c-1.3-0.9-2.7-2-4.1-3.4c-1.4-1.4-2.5-2.8-3.4-4.1
			c-0.3-0.5-1.1-1.8-1.1-1.8c-0.3-0.5-0.2-1.5,0.3-2l3-3c1.6-1.6,1.8-4.3,0.4-6.1l-5.7-6.3c-1.5-1.9-3.9-2.7-5.6-0.9l-4.5,4.5
			c-5.2,5.2,1.1,18.4,9.6,26.9s21.4,14.6,26.7,9.4l4.5-4.5c1.7-1.7,1.3-4-0.6-5.5l-6.6-5.8C718.3,262.3,715.6,262.4,714,264z"/>
	</g>
</g>
</svg>
