<?xml version="1.0" encoding="iso-8859-1"?>
<!-- Generator: Adobe Illustrator 19.0.1, SVG Export Plug-In . SVG Version: 6.00 Build 0)  -->
<svg version="1.1" id="&#x421;&#x43B;&#x43E;&#x439;_1"
	 xmlns="http://www.w3.org/2000/svg" xmlns:xlink="http://www.w3.org/1999/xlink" x="0px" y="0px" viewBox="0 0 864.054 863.693"
	 style="enable-background:new 0 0 864.054 863.693;" xml:space="preserve">
<g>
	<defs>
		<rect id="SVGID_1_" width="864.054" height="863.693"/>
	</defs>
	<clipPath id="SVGID_2_">
		<use xlink:href="#SVGID_1_"  style="overflow:visible;"/>
	</clipPath>
	<path style="clip-path:url(#SVGID_2_);fill:#F08604;" d="M680.943,182.93c12.1,12.1,23.3,24.9,33.8,38.4
		c-2.101-2.7-4.2-5.4-6.3-8.1c20.399,26.7,37.399,55.8,50.5,86.7c-1.301-3.2-2.7-6.4-4-9.6c13.399,32,22.5,65.6,27.1,99.9
		c-0.5-3.5-1-7.1-1.401-10.6c4.5,34.6,4.5,69.6,0,104.2c0.5-3.5,1-7.1,1.401-10.6c-4.6,34.3-13.701,67.9-27.1,99.9
		c1.3-3.2,2.699-6.4,4-9.6c-13.101,30.9-30,60.1-50.5,86.7c2.1-2.7,4.199-5.4,6.3-8.1c-20.901,27-45.2,51.3-72.2,72.2
		c2.7-2.1,5.4-4.2,8.099-6.3c-26.699,20.4-55.8,37.4-86.699,50.5c3.199-1.3,6.399-2.7,9.6-4c-32,13.4-65.6,22.5-99.901,27.1
		c3.5-0.5,7.101-1,10.601-1.4c-34.601,4.5-69.6,4.5-104.2,0c3.5,0.5,7.1,1,10.6,1.4c-34.301-4.6-67.901-13.7-99.901-27.1
		c3.201,1.3,6.401,2.7,9.6,4c-30.899-13.1-60.1-30-86.699-50.5c2.699,2.1,5.4,4.2,8.099,6.3c-27-20.9-51.299-45.2-72.199-72.2
		c2.1,2.7,4.199,5.4,6.299,8.1c-20.399-26.7-37.399-55.8-50.5-86.7c1.301,3.2,2.701,6.4,4,9.6c-13.399-32-22.5-65.6-27.1-99.9
		c0.5,3.5,1,7.1,1.401,10.6c-4.5-34.6-4.5-69.6,0-104.2c-0.5,3.5-1,7.1-1.401,10.6c4.6-34.3,13.701-67.9,27.1-99.9
		c-1.299,3.2-2.699,6.4-4,9.6c13.101-30.9,30-60.1,50.5-86.7c-2.1,2.7-4.199,5.4-6.299,8.1c20.9-27,45.199-51.3,72.199-72.2
		c-2.699,2.1-5.4,4.2-8.099,6.3c26.699-20.4,55.8-37.4,86.699-50.5c-3.199,1.3-6.399,2.7-9.6,4c32-13.4,65.6-22.5,99.901-27.1
		c-3.5,0.5-7.1,1-10.6,1.4c34.6-4.5,69.599-4.5,104.2,0c-3.5-0.5-7.101-1-10.601-1.4c34.301,4.6,67.901,13.7,99.901,27.1
		c-3.201-1.3-6.401-2.7-9.6-4c30.899,13.1,60.1,30,86.699,50.5c-2.699-2.1-5.399-4.2-8.099-6.3
		C656.043,159.63,668.842,170.83,680.943,182.93c14.8,14.8,41.899,15.9,56.6,0c14.599-15.9,15.799-40.8,0-56.6
		c-62.201-61.9-143.701-105.4-230.5-119.8c-42.201-7-84.6-8.8-127.1-3.3c-23.2,3-46.101,7.1-68.601,13.7
		c-22,6.4-43.5,14.9-64.299,24.5c-80.3,37.2-148.8,101.9-191.9,179c-42,75.2-61.7,163.9-53.2,249.8c4.399,44.7,14.7,87.6,32.1,129
		c17.799,42.2,41.7,80.5,71.6,115.4c57.3,67,136.8,115.6,222.4,136.5c83.299,20.3,173.4,16.3,253.799-14.2
		c21.601-8.2,42.701-17.6,62.8-29c20.7-11.7,39.901-25.4,58.5-40.1c35.301-27.9,65.5-62,90.301-99.3
		c47.699-71.8,72.5-159.5,70.5-245.7c-2-86.5-29.801-173.2-81.2-243.1c-13.901-18.8-28.7-36.9-45.2-53.4c-14.8-14.8-42-15.9-56.6,0
		C666.243,142.33,665.142,167.13,680.943,182.93"/>
	<path style="clip-path:url(#SVGID_2_);fill:#F08604;" d="M578.742,297.53c-26,26-51.9,51.9-77.9,77.9l-124,124l-28.2,28.2h56.6
		c-34.5-34.6-69-69.2-103.5-103.8c-4.8-4.9-9.7-9.7-14.5-14.6c-14.8-14.8-42-15.9-56.6,0c-14.7,16-15.8,40.7,0,56.6
		c34.5,34.6,69,69.2,103.5,103.8c4.8,4.9,9.7,9.7,14.5,14.6c15.3,15.3,41.3,15.3,56.6,0c26-26,51.899-51.9,77.899-77.9
		c41.301-41.3,82.701-82.7,124-124c9.401-9.4,18.801-18.8,28.201-28.2c14.799-14.8,15.9-42,0-56.6
		C619.342,282.93,594.542,281.73,578.742,297.53"/>
</g>
</svg>
