<?xml version="1.0" encoding="utf-8"?>
<!-- Generator: Adobe Illustrator 22.1.0, SVG Export Plug-In . SVG Version: 6.00 Build 0)  -->
<svg version="1.1" id="Слой_1" xmlns="http://www.w3.org/2000/svg" xmlns:xlink="http://www.w3.org/1999/xlink" x="0px" y="0px"
	 viewBox="0 0 90 90" style="enable-background:new 0 0 90 90;" xml:space="preserve">
<style type="text/css">
	.st0{fill:#DADADA;}
</style>
<g>
	<path class="st0" d="M8.5,24.9h42.7c0.8,2.5,3.2,4.3,6,4.3s5.1-1.8,6-4.3h18.2c1.1,0,2-0.9,2-2s-0.9-2-2-2H63.2
		c-0.8-2.5-3.2-4.3-6-4.3s-5.1,1.8-6,4.3H8.5c-1.1,0-2,0.9-2,2C6.5,24.1,7.5,24.9,8.5,24.9z M57.2,20.6c1.3,0,2.3,1,2.3,2.3
		s-1,2.3-2.3,2.3s-2.3-1-2.3-2.3S56,20.6,57.2,20.6z"/>
	<path class="st0" d="M77,60.8H12.9c-3.5,0-6.3,2.8-6.3,6.3s2.8,6.3,6.3,6.3H77c3.5,0,6.3-2.8,6.3-6.3S80.5,60.8,77,60.8z M77,69.4
		H12.9c-1.3,0-2.3-1-2.3-2.3s1-2.3,2.3-2.3H77c1.3,0,2.3,1,2.3,2.3C79.4,68.4,78.4,69.4,77,69.4z"/>
	<path class="st0" d="M81.4,40.9H38.7c-0.8-2.5-3.2-4.3-6-4.3s-5.1,1.8-6,4.3H8.5c-1.1,0-2,0.9-2,2s0.9,2,2,2h18.2
		c0.8,2.5,3.2,4.3,6,4.3s5.1-1.8,6-4.3h42.7c1.1,0,2-0.9,2-2C83.5,41.8,82.5,40.9,81.4,40.9z M32.7,45.1c-1.3,0-2.3-1-2.3-2.3
		c0-1.3,1-2.3,2.3-2.3c1.3,0,2.3,1,2.3,2.3C35,44.1,34,45.1,32.7,45.1z"/>
</g>
</svg>
