<?xml version="1.0" encoding="UTF-8" standalone="no"?>
<!-- Created with Inkscape (http://www.inkscape.org/) -->

<svg
   xmlns:dc="http://purl.org/dc/elements/1.1/"
   xmlns:cc="http://creativecommons.org/ns#"
   xmlns:rdf="http://www.w3.org/1999/02/22-rdf-syntax-ns#"
   xmlns:svg="http://www.w3.org/2000/svg"
   xmlns="http://www.w3.org/2000/svg"
   xmlns:sodipodi="http://sodipodi.sourceforge.net/DTD/sodipodi-0.dtd"
   xmlns:inkscape="http://www.inkscape.org/namespaces/inkscape"
   version="1.1"
   id="svg3713"
   width="75.042534"
   height="75.852318"
   viewBox="0 0 75.042534 75.852318"
   sodipodi:docname="icon-symbol.svg"
   inkscape:version="0.92.3 (2405546, 2018-03-11)">
  <metadata
     id="metadata3719">
    <rdf:RDF>
      <cc:Work
         rdf:about="">
        <dc:format>image/svg+xml</dc:format>
        <dc:type
           rdf:resource="http://purl.org/dc/dcmitype/StillImage" />
        <dc:title></dc:title>
      </cc:Work>
    </rdf:RDF>
  </metadata>
  <defs
     id="defs3717" />
  <sodipodi:namedview
     pagecolor="#ffffff"
     bordercolor="#666666"
     borderopacity="1"
     objecttolerance="10"
     gridtolerance="10"
     guidetolerance="10"
     inkscape:pageopacity="0"
     inkscape:pageshadow="2"
     inkscape:window-width="1920"
     inkscape:window-height="1017"
     id="namedview3715"
     showgrid="false"
     fit-margin-top="0"
     fit-margin-left="0"
     fit-margin-right="0"
     fit-margin-bottom="0"
     inkscape:zoom="5.5789474"
     inkscape:cx="54.097394"
     inkscape:cy="43.830522"
     inkscape:window-x="-8"
     inkscape:window-y="1"
     inkscape:window-maximized="1"
     inkscape:current-layer="svg3713" />
  <path
     style="fill:#8d8d8d;stroke-width:1.33333337"
     d="m 67.257304,72.605574 -1.546607,-3.394429 -13.667413,0.867147 c -7.517079,0.476932 -17.117415,1.30512 -21.334081,1.84042 -4.216667,0.535298 -7.666667,0.521649 -7.666667,-0.03034 0,-0.551983 -0.364193,-1.952677 -0.809319,-3.112656 -0.605361,-1.577547 0.03306,-2.109049 2.533314,-2.109049 2.936736,0 3.925496,-1.392387 8.142652,-11.466618 2.64001,-6.30664 4.80002,-12.30664 4.80002,-13.333333 0,-1.392653 -2.031646,-1.866716 -8,-1.866716 -7.111111,0 -8,-0.296296 -8,-2.666667 0,-2.457516 0.888889,-2.666666 11.333333,-2.666666 h 11.333333 v -8 -8 h -9.333333 c -8.444444,0 -9.333333,-0.253968 -9.333333,-2.666667 0,-2.412699 0.888889,-2.666667 9.333333,-2.666667 h 9.333333 V 6.6666666 C 44.375869,0.055555 44.411429,0 48.642536,0 c 3.318519,0 3.911111,0.355555 2.666667,1.5999996 -0.88,0.88 -1.6,3.8547615 -1.6,6.610581 v 5.0105814 l 10.318874,0.389419 c 8.47919,0.319992 10.396331,0.795136 10.753331,2.665107 0.374687,1.962616 -0.999044,2.329475 -9.985541,2.666667 L 50.375869,19.333333 49.975997,27 49.576125,34.666667 h 12.733206 c 11.844316,0 12.733205,0.186156 12.733205,2.666666 0,2.50253 -0.888889,2.666667 -14.44136,2.666667 -13.643941,0 -14.523992,0.165653 -15.937821,3 -2.148032,4.306224 -9.620819,21.278639 -9.620819,21.851087 0,0.793086 16.281781,0.516524 21.628659,-0.367383 l 4.961992,-0.820281 -4.245195,-5.911327 c -3.489664,-4.859272 -3.903589,-6.122449 -2.325777,-7.097592 2.541542,-1.570759 5.14396,0.894235 12.848117,12.169663 5.208257,7.622548 5.931607,9.409328 4.505076,11.128192 -2.358411,2.84171 -3.370047,2.577572 -5.158104,-1.34679 z M 4.0941923,73.000005 c -1.893048,-1.484959 -1.416474,-2.902276 4.371254,-13 9.7012017,-16.925479 8.6480777,-15.655983 11.0608067,-13.333333 1.87293,1.803002 1.426099,3.165689 -4.536408,13.83455 -3.637687,6.509002 -6.6139757,12.359002 -6.6139757,13 0,1.654239 -1.802923,1.443187 -4.281677,-0.501217 z M 7.5805153,31.433841 C 2.7973473,29.02098 -0.31228874,26.647389 0.02495926,25.666672 0.87906726,23.18293 4.2311493,23.64834 12.197224,27.356692 c 6.427209,2.991982 6.973965,3.566836 5.377291,5.653641 -0.97757,1.277653 -1.797179,2.368232 -1.821355,2.423508 -0.02417,0.05528 -3.701867,-1.744724 -8.1726447,-4 z M 10.63681,8.7348756 C 3.9098133,5.0074658 3.1706943,4.2201619 4.9849023,2.7145037 c 1.724476,-1.4311887 3.069254,-1.347864 7.7390587,0.4795252 8.598418,3.3647357 11.090787,5.6022817 9.019828,8.0976351 -2.105306,2.53674 -1.778892,2.61188 -11.106979,-2.5567884 z"
     id="path3723"
     inkscape:connector-curvature="0" />
</svg>
