<?xml version="1.0" encoding="iso-8859-1"?>
<!-- Generator: Adobe Illustrator 19.0.0, SVG Export Plug-In . SVG Version: 6.00 Build 0)  -->
<svg version="1.1" id="Capa_1" xmlns="http://www.w3.org/2000/svg" xmlns:xlink="http://www.w3.org/1999/xlink" x="0px" y="0px"
	 viewBox="0 0 512 512" style="enable-background:new 0 0 512 512;" xml:space="preserve">
<g>
	<g>
		<path d="M191.76,112.535c-1.028-0.916-2.238-1.375-3.63-1.375h-15.29v11.99h14.63c1.466,0,2.805-0.402,4.015-1.21
			c1.21-0.807,1.815-2.421,1.815-4.841C193.3,114.973,192.786,113.453,191.76,112.535z"/>
	</g>
</g>
<g>
	<g>
		<path d="M194.51,141.796c-1.028-1.283-2.348-1.926-3.96-1.926h-17.71v13.09h16.94c1.76,0,3.245-0.55,4.455-1.65
			c1.21-1.1,1.815-2.676,1.815-4.729C196.05,144.675,195.536,143.08,194.51,141.796z"/>
	</g>
</g>
<g>
	<g>
		<polygon points="86.491,115.23 79.231,141.41 93.421,141.41 		"/>
	</g>
</g>
<g>
	<g>
		<path d="M271,241V0H0v271h241v241h271V241H271z M101.561,171l-4.73-15.29h-20.79L71.421,171h-22.77l29.15-78.1h17.38l29.04,78.1
			H101.561z M215.63,160.055c-1.468,2.53-3.484,4.604-6.05,6.215c-2.568,1.614-5.555,2.806-8.965,3.575
			c-3.41,0.771-7.023,1.155-10.835,1.155h-38.39V92.9h45.32c2.712,0,5.17,0.588,7.37,1.76c2.2,1.174,4.07,2.695,5.61,4.564
			c1.54,1.87,2.731,3.998,3.575,6.381c0.842,2.384,1.265,4.822,1.265,7.314c0,3.668-0.935,7.169-2.805,10.505
			c-1.87,3.338-4.675,5.849-8.415,7.535c4.472,1.32,8.011,3.613,10.615,6.875c2.602,3.264,3.905,7.646,3.905,13.146
			C217.83,154.5,217.096,157.525,215.63,160.055z M308,454v-30c12.841,0,24.678-4.355,34.136-11.652l-39.242-39.242l21.213-21.213
			l36.165,36.165c2.4-6.232,3.729-12.991,3.729-20.058h30C394,415.421,355.42,454,308,454z M441,453h-30v-97h30V453z M453,337H305
			v-30h33v-15h30v15h85V337z"/>
	</g>
</g>
<g>
	<g>
		<path d="M428.48,174C419.13,106.567,367.319,52.524,301,39.833v30.682c49.732,11.869,88.374,52.629,97.126,103.485H363l50,50
			l50-50H428.48z"/>
	</g>
</g>
<g>
	<g>
		<path d="M113.542,336H147l-50-50l-50,50h36.247C91.839,404.364,144.023,459.353,211,472.17v-30.683
			C160.616,429.462,121.613,387.786,113.542,336z"/>
	</g>
</g>
<g>
</g>
<g>
</g>
<g>
</g>
<g>
</g>
<g>
</g>
<g>
</g>
<g>
</g>
<g>
</g>
<g>
</g>
<g>
</g>
<g>
</g>
<g>
</g>
<g>
</g>
<g>
</g>
<g>
</g>
</svg>
