<?xml version="1.0" encoding="utf-8"?>
<!-- Generator: Adobe Illustrator 22.1.0, SVG Export Plug-In . SVG Version: 6.00 Build 0)  -->
<svg version="1.1" id="Слой_1" xmlns="http://www.w3.org/2000/svg" xmlns:xlink="http://www.w3.org/1999/xlink" x="0px" y="0px"
	 viewBox="0 0 24 19" style="enable-background:new 0 0 24 19;" xml:space="preserve">
<style type="text/css">
	.st0{fill:#DADADA;}
</style>
<path class="st0" d="M15.4,0c-0.2,0-0.4,0.1-0.5,0.3L14.2,2H2.5C1.1,2,0,3.1,0,4.5v7C0,12.9,1.1,14,2.5,14H3v2.5
	c0,0.2,0.1,0.4,0.3,0.4C3.3,17,3.4,17,3.5,17s0.2,0,0.3-0.1L7.7,14h1.2l-1.4,3.3c-0.1,0.3,0,0.6,0.3,0.7H8c0.2,0,0.4-0.1,0.5-0.3
	L9.2,16c0.1,0,0.2,0,0.3,0h6.8l3.9,2.9c0.1,0.1,0.2,0.1,0.3,0.1s0.1,0,0.2-0.1c0.2,0,0.3-0.2,0.3-0.4V16h0.5c1.4,0,2.5-1.1,2.5-2.5
	v-7C24,5.1,22.9,4,21.5,4h-7l1.4-3.3c0.1-0.2,0-0.5-0.3-0.7C15.5,0,15.5,0,15.4,0z M2.5,3h11.2l-3.8,8.8c0.1-0.3,0-0.6-0.2-0.7
	c-0.8-0.4-1.5-1-2.1-1.7c0.7-1,1.2-2.2,1.3-3.4h0.6C9.8,6,10,5.8,10,5.5S9.8,5,9.5,5h-2V4.5C7.5,4.2,7.3,4,7,4S6.5,4.2,6.5,4.5V5h-2
	C4.2,5,4,5.2,4,5.5S4.2,6,4.5,6h0.6c0.1,1.2,0.5,2.4,1.2,3.4c-0.3,0.3-0.7,0.6-1.1,0.9C5,10.5,5,10.8,5.1,11
	c0.1,0.1,0.2,0.2,0.4,0.2c0.1,0,0.2,0,0.3-0.1c0.4-0.3,0.8-0.6,1.2-0.9c0.6,0.7,1.4,1.3,2.2,1.7C9.2,12,9.3,12,9.4,12
	c0.1,0,0.3-0.1,0.5-0.2L9.4,13H7.5c-0.1,0-0.2,0-0.3,0.1L4,15.5v-2C4,13.2,3.8,13,3.5,13h-1C1.7,13,1,12.3,1,11.5v-7
	C1,3.7,1.7,3,2.5,3z M14,5h7.5C22.3,5,23,5.7,23,6.5v7c0,0.8-0.7,1.5-1.5,1.5h-1c-0.3,0-0.5,0.2-0.5,0.5v2l-3.2-2.3
	c-0.1-0.1-0.2-0.1-0.3-0.1H9.6L14,5z M6.1,6h1.8C7.8,7,7.5,7.8,7,8.6C6.5,7.8,6.2,6.9,6.1,6z M15.5,7C14.7,7,14,7.7,14,8.5v4
	c0,0.3,0.2,0.5,0.5,0.5s0.5-0.2,0.5-0.5V11h3v1.5c0,0.3,0.2,0.5,0.5,0.5s0.5-0.2,0.5-0.5v-4C19,7.7,18.3,7,17.5,7H15.5z M15.5,8h2
	C17.8,8,18,8.2,18,8.5V10h-3V8.5C15,8.2,15.2,8,15.5,8z"/>
</svg>
