<?xml version="1.0" encoding="utf-8"?>
<!-- Generator: Adobe Illustrator 22.1.0, SVG Export Plug-In . SVG Version: 6.00 Build 0)  -->
<svg version="1.1" id="Capa_1" xmlns="http://www.w3.org/2000/svg" xmlns:xlink="http://www.w3.org/1999/xlink" x="0px" y="0px"
	 viewBox="0 0 512 512" style="enable-background:new 0 0 512 512;" xml:space="preserve">
<g>
	<g>
		<path d="M495.9,189.6c-19-15.9-47.3-13.4-63.2,5.5L390,245.6V99.1c0-12.3-5.1-24.2-14-32.6l-57-54.1C310.6,4.4,299.6,0,288,0H45
			C20.2,0,0,20.2,0,45v422c0,24.8,20.2,45,45,45h300c24.8,0,45-20.2,45-45v-82c1.8-2.2,111.1-131.6,111.5-132
			C517.4,233.9,515,205.6,495.9,189.6z M300,35.7c60,57,55.8,52.8,56.9,54.3H300V35.7z M360,467c0,8.3-6.7,15-15,15H45
			c-8.3,0-15-6.7-15-15V45c0-8.3,6.7-15,15-15h225v75c0,8.3,6.7,15,15,15h75v161.1c-6.4,7.6-58.2,68.8-63.8,75.5
			c-4.5,5.3-7.7,11.7-9.3,18.5L273,433.4c-1.3,5.5,0.6,11.3,4.9,15c4.4,3.7,10.4,4.5,15.6,2.3l55-23.9c4.1-1.8,8-4.2,11.4-7.2V467z
			 M324.3,369.8l23,19.3l-5.1,6.1c-1.5,1.8-3.4,3.2-5.5,4.1l-27.5,11.9l7-29.2c0.5-2.3,1.6-4.4,3.1-6.1L324.3,369.8z M366.6,366.2
			l-23-19.3c2.3-2.8,77.7-91.9,82.9-98.1l22.9,19.2L366.6,366.2z M478.5,233.7l-9.6,11.4L446,225.9l9.7-11.5
			c5.3-6.3,14.7-7.1,21-1.8C483,218,483.8,227.4,478.5,233.7z"/>
	</g>
</g>
<g>
	<g>
		<path d="M225,90H75c-8.3,0-15,6.7-15,15s6.7,15,15,15h150c8.3,0,15-6.7,15-15S233.3,90,225,90z"/>
	</g>
</g>
<g>
	<g>
		<path d="M315,181H75c-8.3,0-15,6.7-15,15s6.7,15,15,15h240c8.3,0,15-6.7,15-15S323.3,181,315,181z"/>
	</g>
</g>
<g>
	<g>
		<path d="M315,271H75c-8.3,0-15,6.7-15,15s6.7,15,15,15h240c8.3,0,15-6.7,15-15C330,277.7,323.3,271,315,271z"/>
	</g>
</g>
<g>
	<g>
		<path d="M225,361H75c-8.3,0-15,6.7-15,15s6.7,15,15,15h150c8.3,0,15-6.7,15-15S233.3,361,225,361z"/>
	</g>
</g>
</svg>
