<?xml version="1.0" encoding="iso-8859-1"?>
<!-- Generator: Adobe Illustrator 19.0.1, SVG Export Plug-In . SVG Version: 6.00 Build 0)  -->
<svg version="1.1" id="&#x421;&#x43B;&#x43E;&#x439;_1"
	 xmlns="http://www.w3.org/2000/svg" xmlns:xlink="http://www.w3.org/1999/xlink" x="0px" y="0px" viewBox="0 0 205 130.926"
	 style="enable-background:new 0 0 205 130.926;" xml:space="preserve">
<g>
	<defs>
		<rect id="SVGID_1_" width="205" height="130.926"/>
	</defs>
	<clipPath id="SVGID_2_">
		<use xlink:href="#SVGID_1_"  style="overflow:visible;"/>
	</clipPath>
	<path style="clip-path:url(#SVGID_2_);fill:none;stroke:#E2E4E6;stroke-width:5;" d="M113.611,72.871
		c0,12.273,9.949,22.222,22.222,22.222s22.222-9.949,22.222-22.222H113.611z"/>
	<path style="clip-path:url(#SVGID_2_);fill:none;stroke:#E2E4E6;stroke-width:5;" d="M135.833,72.871V28.426H202.5v100h-40.741
		h25.927V98.797h-51.853v-3.704c12.273,0,22.223-9.949,22.223-22.222H135.833z"/>
	
		<rect x="2.5" y="98.796" style="clip-path:url(#SVGID_2_);fill:none;stroke:#E2E4E6;stroke-width:5;" width="185.186" height="29.629"/>
	
		<rect x="135.833" y="2.5" style="clip-path:url(#SVGID_2_);fill:none;stroke:#E2E4E6;stroke-width:5;" width="66.667" height="25.926"/>
	<path style="clip-path:url(#SVGID_2_);fill:none;stroke:#E2E4E6;stroke-width:5;" d="M109.907,95.093
		c-12.273,0-22.222-9.949-22.222-22.222h25.926c0,7.435,3.651,14.017,9.259,18.051C119.221,93.547,114.745,95.093,109.907,95.093z"
		/>
	<path style="clip-path:url(#SVGID_2_);fill:none;stroke:#E2E4E6;stroke-width:5;" d="M24.085,87.31
		c-2.321-1.496-4.202-4.939-4.202-7.716V67.66c0-1.382-0.806-3.282-1.798-4.241l-6.46-6.246c-0.994-0.96-0.674-1.738,0.711-1.738
		h70.406c1.385,0,1.703,0.779,0.711,1.738l-6.46,6.246c-0.993,0.96-1.799,2.853-1.799,4.241v11.934c0,2.766-1.88,6.219-4.201,7.716
		l-8.786,5.662c-1.158,0.747-3.21,1.352-4.6,1.352H37.471c-1.383,0-3.447-0.608-4.6-1.352L24.085,87.31z"/>
	<path style="clip-path:url(#SVGID_2_);fill:none;stroke:#E2E4E6;stroke-width:5;" d="M13.562,50.252l24.793-8.203
		c0,0-5.554-9.722,8.234-9.722c13.787,0,8.263,9.722,8.263,9.722l26.781,8.287"/>
</g>
</svg>
