<?xml version="1.0" encoding="utf-8"?>
<!-- Generator: Adobe Illustrator 22.1.0, SVG Export Plug-In . SVG Version: 6.00 Build 0)  -->
<svg version="1.1" id="Capa_1" xmlns="http://www.w3.org/2000/svg" xmlns:xlink="http://www.w3.org/1999/xlink" x="0px" y="0px"
	 viewBox="0 0 512 512" style="enable-background:new 0 0 512 512;" xml:space="preserve">
<style type="text/css">
	.st0{fill:#252831;}
</style>
<g>
	<g>
		<g>
			<path class="st0" d="M256,192v-10.7c0-17.7-14.3-32-32-32H111.6c23.6-26.3,21.4-66.8-4.9-90.4S40,37.5,16.4,63.8
				C-6.4,89.2-5.3,128.1,19,152.1c-11.5,5.1-19,16.6-19,29.2V480c0,17.7,14.3,32,32,32h10.7c7.9,0,15.5-2.9,21.3-8.2
				c5.9,5.3,13.5,8.2,21.3,8.2H96c17.7,0,32-14.3,32-32V224h96C241.7,224,256,209.7,256,192z M64,64c23.6,0,42.7,19.1,42.7,42.7
				S87.6,149.4,64,149.4s-42.7-19.1-42.7-42.7S40.5,64,64,64z M117.4,202.7c-5.9,0-10.7,4.8-10.7,10.7V480c0,5.9-4.8,10.7-10.7,10.7
				H85.4c-5.9,0-10.7-4.8-10.7-10.7V309.4H53.4V480c0,5.9-4.8,10.7-10.7,10.7H32c-5.9,0-10.7-4.8-10.7-10.7V181.4
				c0-5.9,4.8-10.7,10.7-10.7h192c5.9,0,10.7,4.8,10.7,10.7V192c0,5.9-4.8,10.7-10.7,10.7H117.4L117.4,202.7z"/>
			<path class="st0" d="M485.8,0c-0.1,0-0.1,0-0.2,0H176.3c-14.7-0.2-26.7,11.6-26.9,26.2c0,0.1,0,0.1,0,0.2v90.9h21.3V26.5
				c0-2.8,2.3-5.1,5.1-5.1h309.3c2.8,0,5.1,2.3,5.1,5.1v288c0,2.8-2.3,5.1-5.1,5.1H175.8c-2.8,0-5.1-2.3-5.1-5.1V256h-21.3v58.9
				c0.1,14.6,11.9,26.4,26.5,26.5H320V412l-72,82.3l16,14.1l66.7-76.2l66.7,76.2l16-14.1l-72-82.3v-70.6h144.2
				c14.6-0.1,26.4-11.9,26.5-26.5v-288C512.2,12.2,500.5,0.2,485.8,0z"/>
			<path class="st0" d="M469.4,53.4c0-5.9-4.8-10.7-10.7-10.7H416V64h32v32h21.3L469.4,53.4L469.4,53.4z"/>
			<rect x="448" y="117.4" class="st0" width="21.3" height="21.3"/>
			<rect x="448" y="277.4" class="st0" width="21.3" height="21.3"/>
			<rect x="394.7" y="277.4" class="st0" width="21.3" height="21.3"/>
			<rect x="341.4" y="277.4" class="st0" width="21.3" height="21.3"/>
		</g>
	</g>
</g>
</svg>
