<?xml version="1.0" encoding="utf-8"?>
<!-- Generator: Adobe Illustrator 22.1.0, SVG Export Plug-In . SVG Version: 6.00 Build 0)  -->
<svg version="1.1" id="Слой_1" xmlns="http://www.w3.org/2000/svg" xmlns:xlink="http://www.w3.org/1999/xlink" x="0px" y="0px"
	 viewBox="0 0 42.7 46.4" style="enable-background:new 0 0 42.7 46.4;" xml:space="preserve">
<style type="text/css">
	.st0{fill:#DADADA;}
</style>
<path class="st0" d="M26.9,29.9l7.4,3.2l-3.5,1l-1.5,3.6L26.9,29.9 M21.6,24l7.2,22l3.5-7.7l7.5,8.1l2.6-2.5L34.9,36l7.8-2.5
	L21.6,24L21.6,24L21.6,24z M31.6,16.3L19.9,9.6L8.3,16.3v13.4L20,36.4l2.4-1.2l-1-3.1L20,32.7l-8.4-4.8v-9.7l8.4-4.9l8.4,4.8V24
	l3.2,1.4V16.3z M23.9,40.2L20,42.3L3.3,32.7V13.4L20,3.7l16.7,9.6v14.3l3.2,1.4V11.5L19.9,0L0,11.5v23L20,46l4.9-2.7L23.9,40.2z"/>
</svg>
