<?xml version="1.0" encoding="iso-8859-1"?>
<!-- Generator: Adobe Illustrator 19.0.0, SVG Export Plug-In . SVG Version: 6.00 Build 0)  -->
<svg version="1.1" id="Capa_1" xmlns="http://www.w3.org/2000/svg" xmlns:xlink="http://www.w3.org/1999/xlink" x="0px" y="0px"
	 viewBox="0 0 512 512" style="enable-background:new 0 0 512 512;" xml:space="preserve">
<g>
	<g>
		<path d="M501.961,78.195h-10.15V42.586c0-15.643-12.732-28.371-28.381-28.371h-3.253c-15.649,0-28.381,12.728-28.381,28.371
			v35.609h-10.15c-5.544,0-10.039,4.496-10.039,10.039v17.699H100.392V88.235c0-5.544-4.495-10.039-10.039-10.039h-10.15V42.586
			c0-15.643-12.732-28.371-28.381-28.371H48.57c-15.649,0-28.381,12.728-28.381,28.371v35.609h-10.15
			C4.495,78.195,0,82.691,0,88.235v335.531c0,5.544,4.495,10.039,10.039,10.039h10.15v35.609c0,15.643,12.732,28.371,28.381,28.371
			h3.253c15.649,0,28.381-12.728,28.381-28.371v-35.609h10.15c5.545,0,10.039-4.496,10.039-10.039v-17.699h311.216v17.699
			c0,5.544,4.496,10.039,10.039,10.039h10.15v35.609c0,15.643,12.732,28.371,28.381,28.371h3.253
			c15.649,0,28.381-12.728,28.381-28.371v-35.609h10.15c5.544,0,10.039-4.496,10.039-10.039V88.235
			C512,82.69,507.504,78.195,501.961,78.195z M40.267,42.586c0-4.573,3.725-8.292,8.302-8.292h3.253c4.578,0,8.302,3.72,8.302,8.292
			v35.609H40.267V42.586z M60.125,469.414c0,4.573-3.725,8.292-8.302,8.292H48.57c-4.578,0-8.302-3.719-8.302-8.292v-35.609h19.858
			V469.414z M80.314,115.973v280.054v17.699h-10.15H30.228h-10.15V98.274h10.15h39.936h10.15V115.973z M411.608,385.988H100.392
			V126.012h311.216V385.988z M451.875,42.586c0-4.573,3.725-8.292,8.302-8.292h3.253c4.578,0,8.302,3.72,8.302,8.292v35.609h-19.858
			V42.586z M463.43,477.706h-3.253c-4.578,0-8.302-3.719-8.302-8.292v-35.609h19.857v35.609h0.001
			C471.733,473.987,468.008,477.706,463.43,477.706z M491.922,413.726h-60.235v-17.699V115.973V98.274h60.235V413.726z"/>
	</g>
</g>
<g>
	<g>
		<path d="M329.969,298.185h-63.93v-42.396h40.026c5.544,0,10.039-4.496,10.039-10.039c0-5.544-4.496-10.039-10.039-10.039h-40.026
			v-32.858h40.026c5.544,0,10.039-4.496,10.039-10.039c0-5.544-4.496-10.039-10.039-10.039h-91.617
			c1.004-4.361,1.525-8.835,1.525-13.322c0-5.544-4.495-10.039-10.039-10.039c-5.545,0-10.039,4.496-10.039,10.039
			c0,6.456-1.61,12.873-4.659,18.572c-0.005,0.01-0.009,0.02-0.015,0.029c-0.003,0.006-0.006,0.013-0.01,0.019
			c-2.439,4.553-5.704,8.534-9.701,11.829l-5.863,4.83c-4.28,3.526-4.891,9.851-1.366,14.131c1.986,2.41,4.858,3.657,7.755,3.657
			c2.247,0,4.508-0.75,6.377-2.29l5.868-4.833c4.422-3.647,8.243-7.855,11.42-12.544h40.26v32.858h-40.026
			c-5.545,0-10.039,4.496-10.039,10.039v52.434h-13.864c-5.545,0-10.039,4.496-10.039,10.039s4.495,10.039,10.039,10.039h63.93
			v24.285c0,5.544,4.495,10.039,10.039,10.039c5.544,0,10.039-4.496,10.039-10.039v-24.285h63.93
			c5.544,0,10.039-4.496,10.039-10.039S335.513,298.185,329.969,298.185z M245.961,298.184h-29.987v-42.395h29.987V298.184z"/>
	</g>
</g>
<g>
	<g>
		<path d="M461.953,287.523c-12.919,0-12.942,20.078,0,20.078C474.873,307.602,474.894,287.523,461.953,287.523z"/>
	</g>
</g>
<g>
	<g>
		<path d="M461.655,320.318c-5.544,0-10.039,4.496-10.039,10.039v55.55c0,5.544,4.496,10.039,10.039,10.039
			c5.544,0,10.039-4.496,10.039-10.039v-55.55C471.695,324.814,467.199,320.318,461.655,320.318z"/>
	</g>
</g>
<g>
</g>
<g>
</g>
<g>
</g>
<g>
</g>
<g>
</g>
<g>
</g>
<g>
</g>
<g>
</g>
<g>
</g>
<g>
</g>
<g>
</g>
<g>
</g>
<g>
</g>
<g>
</g>
<g>
</g>
</svg>
