<?xml version="1.0" encoding="utf-8"?>
<!-- Generator: Adobe Illustrator 22.1.0, SVG Export Plug-In . SVG Version: 6.00 Build 0)  -->
<svg version="1.1" id="Capa_1" xmlns="http://www.w3.org/2000/svg" xmlns:xlink="http://www.w3.org/1999/xlink" x="0px" y="0px"
	 viewBox="0 0 512 512" style="enable-background:new 0 0 512 512;" xml:space="preserve">
<style type="text/css">
	.st0{fill:#FFFFFF;}
</style>
<g>
	<g>
		<path class="st0" d="M422.3,195.5c-3.9-3.9-10.2-3.9-14.1,0s-3.9,10.2,0,14.1c0.2,0.2,0.3,0.3,0.5,0.5c1.9,1.8,4.4,2.7,6.8,2.7
			c2.7,0,5.3-1.1,7.3-3.2C426.5,205.6,426.3,199.3,422.3,195.5z"/>
	</g>
</g>
<g>
	<g>
		<path class="st0" d="M402,179.1c-5.7-3.9-11.6-7.4-17.5-10.3c-33.2-16.7-68.4-20.1-101.7-9.7c-5.3,1.6-8.2,7.2-6.6,12.5
			s7.2,8.2,12.5,6.6c28.3-8.8,58.3-5.9,86.8,8.5c5,2.5,10.3,5.6,15.2,9c1.7,1.2,3.7,1.7,5.6,1.7c3.2,0,6.3-1.5,8.3-4.4
			C407.7,188.4,406.5,182.2,402,179.1z"/>
	</g>
</g>
<g>
	<g>
		<path class="st0" d="M492.9,308.5c-4.1-8.6-10.9-22.8-11-27.6c11.7-28.8,7.4-60.7-12-89.9c-30-44.9-91.3-77.4-146-77.4
			c-28.9,0-57.1,6.9-82.4,20c-7.3-39.9-42.3-70.2-84.2-70.2c-47.2,0-85.6,38.4-85.6,85.6c0,30,15.3,57.3,40.9,73
			c7.4,4.5,9.1,8.4,9.7,14.9V271v24.4c0,11.2,9.1,20.3,20.2,20.3h3.4c5.5,43.8,26.7,83.5,60.3,112.8c0.3,1,1.2,5.6-2.7,19.4
			c-3.1,10.8-7.8,22.7-12,33.3c-2.8,7.1-5.2,13.2-6.7,17.8c-1,3-0.4,6.4,1.5,8.9c1.9,2.6,4.9,4.1,8.1,4.1H337
			c4.7,0,11.1-2.1,15.2-12.1c1.8-4.4,2.9-9.6,4.1-15.1c1.2-5.4,4-18.1,6.7-19.6c0,0,0.2,0,0.6,0c0.5,0.1,1,0.1,1.6,0.1
			c14.9,0,27.2,0.7,37.9,1.3c31.6,1.8,50.7,2.8,67.4-21.3c8.5-12.3,7.5-30.1,6.5-49.1c-0.5-9.8-1.1-19.8-0.1-28.2
			c1.7-1.7,6.1-4.7,8.9-6.6c9.4-6.5,18.3-12.6,18.3-21.9C504.2,332.5,499.9,323.2,492.9,308.5z M123.1,205.1
			c-19.7-12-31.4-33-31.4-56c0-36.2,29.4-65.6,65.6-65.6s65.6,29.4,65.6,65.6c0,23-11.7,44-31.4,56c-9.3,5.7-14.9,12.4-17.5,21.4
			h-16.7h-16.7C138,217.5,132.4,210.8,123.1,205.1z M172.3,246.5v14.6h-30v-14.6H172.3L172.3,246.5z M142.5,295.7
			c-0.1,0-0.2-0.1-0.2-0.3V281h30v14.4c0,0.1-0.1,0.3-0.2,0.3H142.5z M474.5,344.9c-8.6,5.9-16,11-17.1,18.7
			c-1.5,10.6-0.9,22.3-0.3,33.6c0.8,14,1.6,30-3,36.6c-10,14.3-18.6,14.5-49.9,12.7c-10.3-0.6-23.2-1.3-38.4-1.3
			c-5.8-0.7-15.7,0.4-22.3,13.2c-3.4,6.5-5.1,14.7-6.7,21.9c-0.8,3.6-1.9,8.7-3,11.5H208.7c0.4-1.1,0.9-2.2,1.4-3.4
			c14.4-36.3,23.5-62.9,9.6-74.9c-29.4-25.5-48.2-59.9-53.6-98h6c11.2,0,20.2-9.1,20.2-20.3v-24.4V237c0.6-6.4,2.3-10.3,9.7-14.9
			c23.7-14.5,38.5-38.9,40.7-66.2c24.5-14.6,52.5-22.3,81.3-22.3c47.6,0,103.3,29.5,129.3,68.5c11.2,16.7,22,42.8,9.9,71.8
			c-3.9,9.4,1.9,22.5,11.7,43.1c3.2,6.7,7.8,16.3,9,20.8C481.8,339.9,477.4,343,474.5,344.9z"/>
	</g>
</g>
<g>
	<g>
		<path class="st0" d="M206.3,134.9c-3-10.9-10.3-19.7-21.2-25.4c-4.9-2.5-10.9-0.6-13.5,4.3c-2.5,4.9-0.6,10.9,4.3,13.5
			c6,3.1,9.6,7.3,11.1,12.8c2.4,8.7-1.2,18.2-2.8,20.7c-3,4.7-1.6,10.8,3.1,13.8c1.7,1.1,3.5,1.6,5.4,1.6c3.3,0,6.5-1.6,8.4-4.6
			C205.4,164.9,210.3,149.6,206.3,134.9z"/>
	</g>
</g>
<g>
	<g>
		<path class="st0" d="M157.3,0c-5.5,0-10,4.5-10,10v28.5c0,5.5,4.5,10,10,10s10-4.5,10-10V10C167.3,4.5,162.8,0,157.3,0z"/>
	</g>
</g>
<g>
	<g>
		<path class="st0" d="M46.3,139.5H17.8c-5.5,0-10,4.5-10,10s4.5,10,10,10h28.5c5.5,0,10-4.5,10-10
			C56.3,143.9,51.8,139.5,46.3,139.5z"/>
	</g>
</g>
<g>
	<g>
		<path class="st0" d="M110.5,48.4L96.2,23.7c-2.8-4.8-8.9-6.4-13.7-3.7c-4.8,2.8-6.4,8.9-3.7,13.7l14.3,24.7c1.9,3.2,5.2,5,8.7,5
			c1.7,0,3.4-0.4,5-1.3C111.6,59.3,113.2,53.1,110.5,48.4z"/>
	</g>
</g>
<g>
	<g>
		<path class="st0" d="M66.2,85.3L41.5,71.1c-4.8-2.8-10.9-1.1-13.7,3.7c-2.8,4.8-1.1,10.9,3.7,13.7l24.7,14.3
			c1.6,0.9,3.3,1.3,5,1.3c3.5,0,6.8-1.8,8.7-5C72.6,94.2,71,88.1,66.2,85.3z"/>
	</g>
</g>
<g>
	<g>
		<path class="st0" d="M286.7,74.7c-2.8-4.8-8.9-6.4-13.7-3.7l-24.7,14.3c-4.8,2.8-6.4,8.9-3.7,13.7c1.9,3.2,5.2,5,8.7,5
			c1.7,0,3.4-0.4,5-1.3L283,88.4C287.8,85.6,289.5,79.5,286.7,74.7z"/>
	</g>
</g>
<g>
	<g>
		<path class="st0" d="M69.8,199.9c-2.8-4.8-8.9-6.4-13.7-3.7l-24.7,14.3c-4.8,2.8-6.4,8.9-3.7,13.7c1.9,3.2,5.2,5,8.7,5
			c1.7,0,3.4-0.4,5-1.3l24.7-14.3C71,210.8,72.6,204.7,69.8,199.9z"/>
	</g>
</g>
<g>
	<g>
		<path class="st0" d="M104.7,240.5c-4.8-2.8-10.9-1.1-13.7,3.7l-12.2,21.1c-2.8,4.8-1.1,10.9,3.7,13.7c1.6,0.9,3.3,1.3,5,1.3
			c3.5,0,6.8-1.8,8.7-5l12.2-21.1C111.2,249.3,109.5,243.2,104.7,240.5z"/>
	</g>
</g>
<g>
	<g>
		<path class="st0" d="M232,20c-4.8-2.8-10.9-1.1-13.7,3.7L204,48.4c-2.8,4.8-1.1,10.9,3.7,13.7c1.6,0.9,3.3,1.3,5,1.3
			c3.5,0,6.8-1.8,8.7-5l14.3-24.7C238.4,28.9,236.8,22.8,232,20z"/>
	</g>
</g>
</svg>
