<?xml version="1.0" encoding="utf-8"?>
<!-- Generator: Adobe Illustrator 22.1.0, SVG Export Plug-In . SVG Version: 6.00 Build 0)  -->
<svg version="1.1" id="Слой_1" xmlns="http://www.w3.org/2000/svg" xmlns:xlink="http://www.w3.org/1999/xlink" x="0px" y="0px"
	 viewBox="0 0 474.3 301.2" style="enable-background:new 0 0 474.3 301.2;" xml:space="preserve">
<style type="text/css">
	.st0{fill:#DADADA;stroke:#DADADA;stroke-width:8;stroke-miterlimit:10;}
</style>
<g>
	<g>
		<g>
			<path class="st0" d="M345,276.9c-0.6,0-1.2-0.1-1.7-0.2L44.7,205.4c-3.4-0.8-5.8-3.8-5.8-7.3v-92.9c0-3.5,2.4-6.5,5.8-7.3
				l298.6-71.3c2.2-0.5,4.6,0,6.4,1.4s2.9,3.6,2.9,5.9v235.6c0,2.3-1.1,4.5-2.9,5.9C348.3,276.3,346.7,276.9,345,276.9z M53.9,192.1
				l283.6,67.7V43.3L53.9,111.1V192.1z"/>
		</g>
		<g>
			<path class="st0" d="M188.8,296.8c-2.4,0-4.8-0.2-7.2-0.8l-69.9-14.8c-15.7-3.3-27.1-17.4-27.1-33.4v-35.5h15v35.5
				c0,9,6.4,16.9,15.2,18.7l69.9,14.8c5.7,1.2,11.5-0.2,16-3.9c4.5-3.7,7.1-9.1,7.1-14.9v-24.2h15v24.2c0,10.4-4.6,20-12.7,26.5
				C204.1,294.2,196.5,296.8,188.8,296.8z"/>
		</g>
		<g>
			<path class="st0" d="M345,296.8c-4.1,0-7.5-3.4-7.5-7.5v-277c0-4.1,3.4-7.5,7.5-7.5s7.5,3.4,7.5,7.5v277.1
				C352.5,293.5,349.2,296.8,345,296.8z"/>
		</g>
		<g>
			<path class="st0" d="M48.5,200.9h-22c-11.9,0-21.6-9.7-21.6-21.6V124c0-11.9,9.7-21.6,21.6-21.6h22v15h-22c-3.7,0-6.6,3-6.6,6.6
				v55.3c0,3.6,3,6.6,6.6,6.6h22V200.9z"/>
		</g>
	</g>
	<g>
		<g>
			<path class="st0" d="M377.6,94.5c-3.4,0-6.5-2.3-7.3-5.7c-1-4,1.5-8.1,5.5-9.1l32.2-7.8l-16.3-15.5c-1.9-1.8-2.7-4.6-2.1-7.2
				c0.6-2.6,2.5-4.7,5.1-5.5L442.2,29c4-1.2,8.2,1,9.4,5c1.2,4-1,8.2-5,9.4l-35.3,10.9l17,16.2c2,1.9,2.8,4.7,2.1,7.4
				c-0.7,2.7-2.8,4.7-5.5,5.4l-45.6,11C378.8,94.5,378.2,94.5,377.6,94.5z"/>
		</g>
		<g>
			<path class="st0" d="M444.4,270c-0.7,0-1.5-0.1-2.2-0.3L394.7,255c-2.5-0.8-4.5-2.9-5.1-5.5s0.2-5.3,2.1-7.2l16.3-15.5l-32.2-7.8
				c-4-1-6.5-5-5.5-9.1c1-4,5-6.5,9.1-5.5l45.6,11c2.7,0.6,4.8,2.7,5.5,5.4c0.7,2.7-0.1,5.5-2.1,7.4l-17,16.2l35.3,10.9
				c4,1.2,6.2,5.4,5,9.4C450.5,268,447.6,270,444.4,270z"/>
		</g>
		<g>
			<path class="st0" d="M415.7,173.7c-1.6,0-3.2-0.5-4.5-1.5c-2.1-1.6-3.2-4.2-2.9-6.9l2.6-22.4l-29.7,14.6c-3.7,1.8-8.2,0.3-10-3.4
				c-1.8-3.7-0.3-8.2,3.4-10l42.1-20.7c2.5-1.2,5.4-1,7.6,0.6s3.4,4.3,3.1,7l-2.7,23.3l34-14.2c3.8-1.6,8.2,0.2,9.8,4
				c1.6,3.8-0.2,8.2-4,9.8l-45.9,19.2C417.7,173.5,416.7,173.7,415.7,173.7z"/>
		</g>
	</g>
</g>
</svg>
