<?xml version="1.0" encoding="iso-8859-1"?>
<!-- Generator: Adobe Illustrator 19.0.1, SVG Export Plug-In . SVG Version: 6.00 Build 0)  -->
<svg version="1.1" id="&#x421;&#x43B;&#x43E;&#x439;_1"
	 xmlns="http://www.w3.org/2000/svg" xmlns:xlink="http://www.w3.org/1999/xlink" x="0px" y="0px" viewBox="0 0 78.5 61.4"
	 style="enable-background:new 0 0 78.5 61.4;" xml:space="preserve">
<g>
	<defs>
		<rect id="SVGID_1_" y="0" width="78.5" height="61.4"/>
	</defs>
	<clipPath id="SVGID_2_">
		<use xlink:href="#SVGID_1_"  style="overflow:visible;"/>
	</clipPath>
	<path style="clip-path:url(#SVGID_2_);fill:#D2D6D7;" d="M74.4,6.3H41V0h-8.3v6.3H0l13.5,13.5L0,33.3h32.7v26.099h-8.4v2h8.4H41
		h8.4v-2H41V33.3h14.6h4.1H65c2.3,0,4.1-1.9,4.1-4.1c0-1.3-0.6-2.4-1.5-3.1c0.9-0.8,1.5-1.9,1.5-3.1c0-1.3-0.6-2.4-1.5-3.1
		c0.9-0.8,1.5-1.9,1.5-3.1c0-0.8-0.2-1.5-0.6-2.1h5.9c2.3,0,4.1-1.9,4.1-4.1C78.5,8.1,76.6,6.3,74.4,6.3 M34.7,2H39v4.3h-4.3V2z
		 M34.7,33.3H39v26.1h-4.3V33.3z M65,31.3h-9.4c-1.2,0-2.1-1-2.1-2.1c0-1.2,1-2.1,2.1-2.1H65c1.2,0,2.1,1,2.1,2.1S66.2,31.3,65,31.3
		 M65,25h-9.4c-1.2,0-2.1-1-2.1-2.1s1-2.1,2.1-2.1H65c1.2,0,2.1,1,2.1,2.1S66.2,25,65,25 M65,18.8h-9.4c-1.2,0-2.1-1-2.1-2.1
		c0-1.2,1-2.1,2.1-2.1H65c1.2,0,2.1,1,2.1,2.1C67.1,17.8,66.2,18.8,65,18.8 M74.4,12.5H65h-7.3h-2.1c-2.3,0-4.1,1.9-4.1,4.1
		c0,1.3,0.6,2.4,1.5,3.1c-0.9,0.8-1.5,1.9-1.5,3.1c0,1.3,0.6,2.4,1.5,3.1c-0.9,0.8-1.5,1.9-1.5,3.1c0,0.8,0.2,1.5,0.6,2.1H41h-8.3
		H4.8l11.6-11.3L4.8,8.3h27.9H41h33.4c1.2,0,2.1,1,2.1,2.1C76.5,11.6,75.5,12.5,74.4,12.5"/>
</g>
</svg>
