<?xml version="1.0" encoding="iso-8859-1"?>
<!-- Generator: Adobe Illustrator 16.0.0, SVG Export Plug-In . SVG Version: 6.00 Build 0)  -->
<!DOCTYPE svg PUBLIC "-//W3C//DTD SVG 1.1//EN" "http://www.w3.org/Graphics/SVG/1.1/DTD/svg11.dtd">
<svg version="1.1" id="Capa_1" xmlns="http://www.w3.org/2000/svg" xmlns:xlink="http://www.w3.org/1999/xlink" x="0px" y="0px"
	 width="50.021px" height="50.021px" viewBox="0 0 50.021 50.021" style="enable-background:new 0 0 50.021 50.021;"
	 xml:space="preserve">
<g>
	<g>
		<ellipse cx="25.001" cy="32.054" rx="2.5" ry="1"/>
		<path d="M17.028,30.113c0.6,0.188,1.138,0.281,1.601,0.281c1.313,0,1.688-0.752,1.789-1.076c0.163-0.523,0.016-1.063-0.416-1.521
			c-0.403-0.43-1.051-0.783-1.924-1.057c-0.503-0.154-1.103-0.233-1.782-0.233c-1.303,0-2.471,0.288-2.52,0.3
			c-0.169,0.042-0.305,0.17-0.356,0.336c-0.051,0.166-0.013,0.348,0.103,0.479C13.591,27.699,15.246,29.56,17.028,30.113z"/>
		<path d="M31.372,30.322c0.463,0,1.001-0.095,1.602-0.279c1.781-0.556,3.438-2.414,3.508-2.492
			c0.114-0.131,0.153-0.313,0.104-0.479c-0.051-0.166-0.188-0.294-0.356-0.336c-0.049-0.013-1.217-0.3-2.52-0.3
			c-0.68,0-1.279,0.079-1.782,0.235c-0.874,0.271-1.521,0.627-1.924,1.055c-0.432,0.458-0.579,0.998-0.416,1.521
			C29.685,29.569,30.06,30.322,31.372,30.322z"/>
		<path d="M48.849,19.881L26.535,2.526c-0.902-0.702-2.167-0.702-3.069,0l-22.5,17.5c-0.843,0.655-1.177,1.774-0.83,2.785
			c0.347,1.011,1.297,1.688,2.365,1.688h3.14c-1.307,1.203-2.14,2.964-2.14,4.931c0,2.969,1.885,5.482,4.463,6.291
			c1.879,3.597,4.852,6.452,8.42,8.23v2.071c0,1.104,0.896,2,2,2s2-0.896,2-2v-0.604c1.498,0.367,3.054,0.572,4.648,0.572
			c1.572,0,3.105-0.198,4.584-0.559v0.59c0,1.104,0.896,2,2,2c1.104,0,2-0.896,2-2v-2.041c3.604-1.782,6.604-4.657,8.495-8.285
			c2.54-0.833,4.39-3.327,4.39-6.267c0-1.966-0.833-3.728-2.142-4.931h3.142c0.005,0,0.012,0,0.021,0c1.381,0,2.5-1.119,2.5-2.5
			C50.02,21.106,49.553,20.323,48.849,19.881z M40.251,26.865c0.002,0,0.004-0.001,0.006-0.001c1.245,0,2.242,1.147,2.242,2.563
			s-0.997,2.562-2.242,2.562c-0.29,0-0.563-0.065-0.816-0.182c-1.068,3.099-3.139,5.735-5.823,7.552v-3.4c0-1.104-0.896-2-2-2
			h-3.144c-1.104,0-2,0.896-2,2c0,1.104,0.896,2,2,2h1.144v3.329c-1.446,0.451-2.984,0.701-4.584,0.701
			c-1.623,0-3.183-0.255-4.648-0.719v-3.312h1.143c1.104,0,2-0.896,2-2c0-1.104-0.896-2-2-2h-3.143c-1.104,0-2,0.896-2,2v3.358
			c-2.661-1.819-4.71-4.447-5.767-7.53c-0.269,0.131-0.564,0.201-0.874,0.201c-1.245,0-2.243-1.146-2.243-2.562
			s0.998-2.563,2.243-2.563c0.023,0,0.045,0.007,0.069,0.008c0.005-0.685,0.063-1.511,0.16-2.375h30.12
			C40.188,25.359,40.245,26.184,40.251,26.865z"/>
	</g>
</g>
<g>
</g>
<g>
</g>
<g>
</g>
<g>
</g>
<g>
</g>
<g>
</g>
<g>
</g>
<g>
</g>
<g>
</g>
<g>
</g>
<g>
</g>
<g>
</g>
<g>
</g>
<g>
</g>
<g>
</g>
</svg>
